<?xml version="1.0" encoding="utf-8" standalone="no"?>
<!DOCTYPE svg PUBLIC "-//W3C//DTD SVG 1.1//EN"
  "http://www.w3.org/Graphics/SVG/1.1/DTD/svg11.dtd">
<!-- Created with matplotlib (http://matplotlib.org/) -->
<svg height="288pt" version="1.1" viewBox="0 0 288 288" width="288pt" xmlns="http://www.w3.org/2000/svg" xmlns:xlink="http://www.w3.org/1999/xlink">
 <defs>
  <style type="text/css">
*{stroke-linecap:butt;stroke-linejoin:round;}
  </style>
 </defs>
 <g id="figure_1">
  <g id="patch_1">
   <path d="M 0 288 
L 288 288 
L 288 0 
L 0 0 
z
" style="fill:#ffffff;"/>
  </g>
  <g id="axes_1">
   <g id="patch_2">
    <path d="M 36 256.32 
L 259.2 256.32 
L 259.2 34.56 
L 36 34.56 
z
" style="fill:#ffffff;"/>
   </g>
   <g id="patch_3">
    <path clip-path="url(#p059026d727)" d="M 167.128337 271.774759 
L 265.139414 297.742425 
L 376.218634 323.710091 
L 620.479227 374.891448 
L 1055.782126 453.479751 
L 1059.502675 453.479751 
L 1059.502675 446.08666 
L 1046.434531 394.151329 
L 1046.23321 393.74854 
L 1045.950711 393.183354 
L 1045.808246 392.898336 
L 1044.968739 391.220013 
L 1044.53807 390.359655 
L 1042.046889 385.473907 
L 1040.793175 383.063321 
L 1001.588744 331.127989 
L 936.248026 279.192658 
L 844.771022 227.257326 
L 727.15773 175.321994 
L 583.408151 123.386663 
L 413.746909 71.52 
L -158.682536 71.52 
L -158.682536 78.913068 
L -152.148464 104.880734 
L -151.576267 106.025544 
L -151.11054 106.957308 
L -150.252003 108.67243 
L -147.760822 113.558178 
L -146.507107 115.968764 
L -126.904892 141.93643 
L -94.234533 167.904096 
L -48.496031 193.871762 
L 10.310615 219.839428 
L 82.185404 245.807094 
z
" style="fill:#f0ffff;"/>
   </g>
   <g id="patch_4">
    <path clip-path="url(#p059026d727)" d="M 81.225 236.566544 
L 166.167933 262.53421 
L 264.17901 288.501876 
L 375.25823 314.469542 
L 619.518823 365.650899 
L 1054.821722 444.239202 
L 1041.753578 392.30387 
L 1002.549148 340.368539 
L 937.20843 288.433207 
L 845.731426 236.497875 
L 728.118134 184.562544 
L 584.368555 132.627212 
L 414.707313 80.760549 
L -154.001583 80.760549 
L -147.467511 106.728215 
L -127.865296 132.695881 
L -95.194937 158.663547 
L -49.456435 184.631213 
L 9.350211 210.598878 
z
" style="fill:#e0ffff;"/>
   </g>
   <g id="patch_5">
    <path clip-path="url(#p059026d727)" d="M 231.714384 219.770759 
L 235.434933 219.770759 
L 235.434933 212.377668 
L 222.886095 160.785552 
L 222.684774 160.382764 
L 222.402274 159.817577 
L 222.259809 159.53256 
L 221.420302 157.854237 
L 220.989633 156.993879 
L 218.498453 152.108131 
L 217.244738 149.697545 
L 138.300403 71.52 
L 134.264976 71.52 
L 134.264976 78.913068 
L 146.713905 130.094425 
L 147.286102 131.239235 
L 147.751829 132.170998 
L 148.610367 133.886121 
L 151.101547 138.771869 
L 152.355262 141.182455 
z
" style="fill:#90ee90;"/>
   </g>
   <g id="patch_6">
    <path clip-path="url(#p059026d727)" d="M 230.75398 210.530209 
L 218.205142 158.938094 
L 139.260807 80.760549 
L 138.945929 80.760549 
L 151.394858 131.941906 
z
" style="fill:#00fa9a;"/>
   </g>
   <g id="patch_7">
    <path clip-path="url(#p059026d727)" d="M 87.196567 210.348543 
L 88.055105 212.063666 
L 90.546285 216.949414 
L 91.8 219.36 
L 95.520549 219.36 
L 95.520549 211.966909 
L 95.319228 211.564121 
L 95.036729 210.998934 
L 94.894263 210.713917 
L 94.054756 209.035594 
L 93.624088 208.175236 
L 91.132907 203.289488 
L 89.879192 200.878901 
L 86.158643 200.878901 
L 86.158643 208.271969 
L 86.73084 209.41678 
z
" style="fill:#ffa07a;"/>
   </g>
   <g id="patch_8">
    <path clip-path="url(#p059026d727)" d="M 61.156567 177.084543 
L 62.015105 178.799666 
L 64.506285 183.685414 
L 65.76 186.096 
L 69.480549 186.096 
L 69.480549 178.702909 
L 69.279228 178.300121 
L 68.996729 177.734934 
L 68.854263 177.449917 
L 68.014756 175.771594 
L 67.584088 174.911236 
L 65.092907 170.025488 
L 63.839192 167.614901 
L 60.118643 167.614901 
L 60.118643 175.007969 
L 60.69084 176.15278 
z
" style="fill:#ffa07a;"/>
   </g>
   <g id="patch_9">
    <path clip-path="url(#p059026d727)" d="M 51.856567 143.820543 
L 52.715105 145.535666 
L 55.206285 150.421414 
L 56.46 152.832 
L 60.180549 152.832 
L 60.180549 145.438909 
L 59.979228 145.036121 
L 59.696729 144.470934 
L 59.554263 144.185917 
L 58.714756 142.507594 
L 58.284088 141.647236 
L 55.792907 136.761488 
L 54.539192 134.350901 
L 50.818643 134.350901 
L 50.818643 141.743969 
L 51.39084 142.88878 
z
" style="fill:#ffa07a;"/>
   </g>
   <g id="patch_10">
    <path clip-path="url(#p059026d727)" d="M 61.217924 114.252574 
L 62.076461 115.967696 
L 64.567642 120.853444 
L 65.821357 123.264031 
L 69.541906 123.264031 
L 69.541906 115.87094 
L 69.340585 115.468151 
L 69.058085 114.902965 
L 68.91562 114.617947 
L 68.076113 112.939624 
L 67.645444 112.079266 
L 65.154264 107.193518 
L 63.900549 104.782932 
L 60.18 104.782932 
L 60.18 112.176 
L 60.752197 113.32081 
z
" style="fill:#ffa07a;"/>
   </g>
   <g id="patch_11">
    <path clip-path="url(#p059026d727)" d="M 83.562262 88.283848 
L 84.4208 89.99897 
L 86.911981 94.884718 
L 88.165695 97.295304 
L 91.886244 97.295304 
L 91.886244 89.902213 
L 91.684923 89.499425 
L 91.402424 88.934238 
L 91.259958 88.649221 
L 90.420452 86.970898 
L 89.989783 86.11054 
L 87.498602 81.224792 
L 86.244888 78.814206 
L 82.524339 78.814206 
L 82.524339 86.207274 
L 83.096536 87.352084 
z
" style="fill:#ffa07a;"/>
   </g>
   <g id="patch_12">
    <path clip-path="url(#p059026d727)" d="M 114.276599 80.989649 
L 115.135137 82.704772 
L 117.626317 87.59052 
L 118.880032 90.001106 
L 122.600581 90.001106 
L 122.600581 82.608015 
L 122.39926 82.205227 
L 122.116761 81.64004 
L 121.974295 81.355023 
L 121.134788 79.6767 
L 120.70412 78.816342 
L 118.212939 73.930594 
L 116.959224 71.520008 
L 113.238675 71.520008 
L 113.238675 78.913076 
L 113.810872 80.057886 
z
" style="fill:#ffa07a;"/>
   </g>
   <g id="patch_13">
    <path clip-path="url(#p059026d727)" d="M 150.25938 92.479897 
L 151.117918 94.195019 
L 153.609099 99.080767 
L 154.862813 101.491353 
L 158.583362 101.491353 
L 158.583362 94.098263 
L 158.382041 93.695474 
L 158.099542 93.130287 
L 157.957076 92.84527 
L 157.11757 91.166947 
L 156.686901 90.306589 
L 154.19572 85.420841 
L 152.942006 83.010255 
L 149.221457 83.010255 
L 149.221457 90.403323 
L 149.793654 91.548133 
z
" style="fill:#ffa07a;"/>
   </g>
   <g id="patch_14">
    <path clip-path="url(#p059026d727)" d="M 174.722315 124.554149 
L 175.580853 126.269272 
L 178.072033 131.155019 
L 179.325748 133.565606 
L 183.046297 133.565606 
L 183.046297 126.172515 
L 182.844976 125.769726 
L 182.562477 125.20454 
L 182.420011 124.919522 
L 181.580504 123.241199 
L 181.149836 122.380841 
L 178.658655 117.495093 
L 177.40494 115.084507 
L 173.684391 115.084507 
L 173.684391 122.477575 
L 174.256588 123.622385 
z
" style="fill:#ffa07a;"/>
   </g>
   <g id="patch_15">
    <path clip-path="url(#p059026d727)" d="M 181.183899 145.556204 
L 182.042436 147.271327 
L 184.533617 152.157075 
L 185.787332 154.567661 
L 189.507881 154.567661 
L 189.507881 147.17457 
L 189.30656 146.771782 
L 189.02406 146.206595 
L 188.881595 145.921578 
L 188.042088 144.243255 
L 187.611419 143.382897 
L 185.120239 138.497149 
L 183.866524 136.086563 
L 180.145975 136.086563 
L 180.145975 143.479631 
L 180.718172 144.624441 
z
" style="fill:#ffa07a;"/>
   </g>
   <g id="matplotlib.axis_1">
    <g id="xtick_1">
     <g id="line2d_1">
      <path clip-path="url(#p059026d727)" d="M 36 256.32 
L 36 34.56 
" style="fill:none;stroke:#b0b0b0;stroke-linecap:square;stroke-width:0.8;"/>
     </g>
     <g id="line2d_2">
      <defs>
       <path d="M 0 0 
L 0 3.5 
" id="m2a46d685d2" style="stroke:#000000;stroke-width:0.8;"/>
      </defs>
      <g>
       <use style="stroke:#000000;stroke-width:0.8;" x="36" xlink:href="#m2a46d685d2" y="256.32"/>
      </g>
     </g>
     <g id="text_1">
      <!-- −8 -->
      <defs>
       <path d="M 10.59375 35.5 
L 73.1875 35.5 
L 73.1875 27.203125 
L 10.59375 27.203125 
z
" id="DejaVuSans-2212"/>
       <path d="M 31.78125 34.625 
Q 24.75 34.625 20.71875 30.859375 
Q 16.703125 27.09375 16.703125 20.515625 
Q 16.703125 13.921875 20.71875 10.15625 
Q 24.75 6.390625 31.78125 6.390625 
Q 38.8125 6.390625 42.859375 10.171875 
Q 46.921875 13.96875 46.921875 20.515625 
Q 46.921875 27.09375 42.890625 30.859375 
Q 38.875 34.625 31.78125 34.625 
z
M 21.921875 38.8125 
Q 15.578125 40.375 12.03125 44.71875 
Q 8.5 49.078125 8.5 55.328125 
Q 8.5 64.0625 14.71875 69.140625 
Q 20.953125 74.21875 31.78125 74.21875 
Q 42.671875 74.21875 48.875 69.140625 
Q 55.078125 64.0625 55.078125 55.328125 
Q 55.078125 49.078125 51.53125 44.71875 
Q 48 40.375 41.703125 38.8125 
Q 48.828125 37.15625 52.796875 32.3125 
Q 56.78125 27.484375 56.78125 20.515625 
Q 56.78125 9.90625 50.3125 4.234375 
Q 43.84375 -1.421875 31.78125 -1.421875 
Q 19.734375 -1.421875 13.25 4.234375 
Q 6.78125 9.90625 6.78125 20.515625 
Q 6.78125 27.484375 10.78125 32.3125 
Q 14.796875 37.15625 21.921875 38.8125 
z
M 18.3125 54.390625 
Q 18.3125 48.734375 21.84375 45.5625 
Q 25.390625 42.390625 31.78125 42.390625 
Q 38.140625 42.390625 41.71875 45.5625 
Q 45.3125 48.734375 45.3125 54.390625 
Q 45.3125 60.0625 41.71875 63.234375 
Q 38.140625 66.40625 31.78125 66.40625 
Q 25.390625 66.40625 21.84375 63.234375 
Q 18.3125 60.0625 18.3125 54.390625 
z
" id="DejaVuSans-38"/>
      </defs>
      <g transform="translate(28.628906 270.918437)scale(0.1 -0.1)">
       <use xlink:href="#DejaVuSans-2212"/>
       <use x="83.789062" xlink:href="#DejaVuSans-38"/>
      </g>
     </g>
    </g>
    <g id="xtick_2">
     <g id="line2d_3">
      <path clip-path="url(#p059026d727)" d="M 73.2 256.32 
L 73.2 34.56 
" style="fill:none;stroke:#b0b0b0;stroke-linecap:square;stroke-width:0.8;"/>
     </g>
     <g id="line2d_4">
      <g>
       <use style="stroke:#000000;stroke-width:0.8;" x="73.2" xlink:href="#m2a46d685d2" y="256.32"/>
      </g>
     </g>
     <g id="text_2">
      <!-- −6 -->
      <defs>
       <path d="M 33.015625 40.375 
Q 26.375 40.375 22.484375 35.828125 
Q 18.609375 31.296875 18.609375 23.390625 
Q 18.609375 15.53125 22.484375 10.953125 
Q 26.375 6.390625 33.015625 6.390625 
Q 39.65625 6.390625 43.53125 10.953125 
Q 47.40625 15.53125 47.40625 23.390625 
Q 47.40625 31.296875 43.53125 35.828125 
Q 39.65625 40.375 33.015625 40.375 
z
M 52.59375 71.296875 
L 52.59375 62.3125 
Q 48.875 64.0625 45.09375 64.984375 
Q 41.3125 65.921875 37.59375 65.921875 
Q 27.828125 65.921875 22.671875 59.328125 
Q 17.53125 52.734375 16.796875 39.40625 
Q 19.671875 43.65625 24.015625 45.921875 
Q 28.375 48.1875 33.59375 48.1875 
Q 44.578125 48.1875 50.953125 41.515625 
Q 57.328125 34.859375 57.328125 23.390625 
Q 57.328125 12.15625 50.6875 5.359375 
Q 44.046875 -1.421875 33.015625 -1.421875 
Q 20.359375 -1.421875 13.671875 8.265625 
Q 6.984375 17.96875 6.984375 36.375 
Q 6.984375 53.65625 15.1875 63.9375 
Q 23.390625 74.21875 37.203125 74.21875 
Q 40.921875 74.21875 44.703125 73.484375 
Q 48.484375 72.75 52.59375 71.296875 
z
" id="DejaVuSans-36"/>
      </defs>
      <g transform="translate(65.828906 270.918437)scale(0.1 -0.1)">
       <use xlink:href="#DejaVuSans-2212"/>
       <use x="83.789062" xlink:href="#DejaVuSans-36"/>
      </g>
     </g>
    </g>
    <g id="xtick_3">
     <g id="line2d_5">
      <path clip-path="url(#p059026d727)" d="M 110.4 256.32 
L 110.4 34.56 
" style="fill:none;stroke:#b0b0b0;stroke-linecap:square;stroke-width:0.8;"/>
     </g>
     <g id="line2d_6">
      <g>
       <use style="stroke:#000000;stroke-width:0.8;" x="110.4" xlink:href="#m2a46d685d2" y="256.32"/>
      </g>
     </g>
     <g id="text_3">
      <!-- −4 -->
      <defs>
       <path d="M 37.796875 64.3125 
L 12.890625 25.390625 
L 37.796875 25.390625 
z
M 35.203125 72.90625 
L 47.609375 72.90625 
L 47.609375 25.390625 
L 58.015625 25.390625 
L 58.015625 17.1875 
L 47.609375 17.1875 
L 47.609375 0 
L 37.796875 0 
L 37.796875 17.1875 
L 4.890625 17.1875 
L 4.890625 26.703125 
z
" id="DejaVuSans-34"/>
      </defs>
      <g transform="translate(103.028906 270.918437)scale(0.1 -0.1)">
       <use xlink:href="#DejaVuSans-2212"/>
       <use x="83.789062" xlink:href="#DejaVuSans-34"/>
      </g>
     </g>
    </g>
    <g id="xtick_4">
     <g id="line2d_7">
      <path clip-path="url(#p059026d727)" d="M 147.6 256.32 
L 147.6 34.56 
" style="fill:none;stroke:#b0b0b0;stroke-linecap:square;stroke-width:0.8;"/>
     </g>
     <g id="line2d_8">
      <g>
       <use style="stroke:#000000;stroke-width:0.8;" x="147.6" xlink:href="#m2a46d685d2" y="256.32"/>
      </g>
     </g>
     <g id="text_4">
      <!-- −2 -->
      <defs>
       <path d="M 19.1875 8.296875 
L 53.609375 8.296875 
L 53.609375 0 
L 7.328125 0 
L 7.328125 8.296875 
Q 12.9375 14.109375 22.625 23.890625 
Q 32.328125 33.6875 34.8125 36.53125 
Q 39.546875 41.84375 41.421875 45.53125 
Q 43.3125 49.21875 43.3125 52.78125 
Q 43.3125 58.59375 39.234375 62.25 
Q 35.15625 65.921875 28.609375 65.921875 
Q 23.96875 65.921875 18.8125 64.3125 
Q 13.671875 62.703125 7.8125 59.421875 
L 7.8125 69.390625 
Q 13.765625 71.78125 18.9375 73 
Q 24.125 74.21875 28.421875 74.21875 
Q 39.75 74.21875 46.484375 68.546875 
Q 53.21875 62.890625 53.21875 53.421875 
Q 53.21875 48.921875 51.53125 44.890625 
Q 49.859375 40.875 45.40625 35.40625 
Q 44.1875 33.984375 37.640625 27.21875 
Q 31.109375 20.453125 19.1875 8.296875 
z
" id="DejaVuSans-32"/>
      </defs>
      <g transform="translate(140.228906 270.918437)scale(0.1 -0.1)">
       <use xlink:href="#DejaVuSans-2212"/>
       <use x="83.789062" xlink:href="#DejaVuSans-32"/>
      </g>
     </g>
    </g>
    <g id="xtick_5">
     <g id="line2d_9">
      <path clip-path="url(#p059026d727)" d="M 184.8 256.32 
L 184.8 34.56 
" style="fill:none;stroke:#b0b0b0;stroke-linecap:square;stroke-width:0.8;"/>
     </g>
     <g id="line2d_10">
      <g>
       <use style="stroke:#000000;stroke-width:0.8;" x="184.8" xlink:href="#m2a46d685d2" y="256.32"/>
      </g>
     </g>
     <g id="text_5">
      <!-- 0 -->
      <defs>
       <path d="M 31.78125 66.40625 
Q 24.171875 66.40625 20.328125 58.90625 
Q 16.5 51.421875 16.5 36.375 
Q 16.5 21.390625 20.328125 13.890625 
Q 24.171875 6.390625 31.78125 6.390625 
Q 39.453125 6.390625 43.28125 13.890625 
Q 47.125 21.390625 47.125 36.375 
Q 47.125 51.421875 43.28125 58.90625 
Q 39.453125 66.40625 31.78125 66.40625 
z
M 31.78125 74.21875 
Q 44.046875 74.21875 50.515625 64.515625 
Q 56.984375 54.828125 56.984375 36.375 
Q 56.984375 17.96875 50.515625 8.265625 
Q 44.046875 -1.421875 31.78125 -1.421875 
Q 19.53125 -1.421875 13.0625 8.265625 
Q 6.59375 17.96875 6.59375 36.375 
Q 6.59375 54.828125 13.0625 64.515625 
Q 19.53125 74.21875 31.78125 74.21875 
z
" id="DejaVuSans-30"/>
      </defs>
      <g transform="translate(181.61875 270.918437)scale(0.1 -0.1)">
       <use xlink:href="#DejaVuSans-30"/>
      </g>
     </g>
    </g>
    <g id="xtick_6">
     <g id="line2d_11">
      <path clip-path="url(#p059026d727)" d="M 222 256.32 
L 222 34.56 
" style="fill:none;stroke:#b0b0b0;stroke-linecap:square;stroke-width:0.8;"/>
     </g>
     <g id="line2d_12">
      <g>
       <use style="stroke:#000000;stroke-width:0.8;" x="222" xlink:href="#m2a46d685d2" y="256.32"/>
      </g>
     </g>
     <g id="text_6">
      <!-- 2 -->
      <g transform="translate(218.81875 270.918437)scale(0.1 -0.1)">
       <use xlink:href="#DejaVuSans-32"/>
      </g>
     </g>
    </g>
    <g id="xtick_7">
     <g id="line2d_13">
      <path clip-path="url(#p059026d727)" d="M 259.2 256.32 
L 259.2 34.56 
" style="fill:none;stroke:#b0b0b0;stroke-linecap:square;stroke-width:0.8;"/>
     </g>
     <g id="line2d_14">
      <g>
       <use style="stroke:#000000;stroke-width:0.8;" x="259.2" xlink:href="#m2a46d685d2" y="256.32"/>
      </g>
     </g>
     <g id="text_7">
      <!-- 4 -->
      <g transform="translate(256.01875 270.918437)scale(0.1 -0.1)">
       <use xlink:href="#DejaVuSans-34"/>
      </g>
     </g>
    </g>
    <g id="text_8">
     <!-- $x_1$ -->
     <defs>
      <path d="M 60.015625 54.6875 
L 34.90625 27.875 
L 50.296875 0 
L 39.984375 0 
L 28.421875 21.6875 
L 8.296875 0 
L -2.59375 0 
L 24.3125 28.8125 
L 10.015625 54.6875 
L 20.3125 54.6875 
L 30.8125 34.90625 
L 49.125 54.6875 
z
" id="DejaVuSans-Oblique-78"/>
      <path d="M 12.40625 8.296875 
L 28.515625 8.296875 
L 28.515625 63.921875 
L 10.984375 60.40625 
L 10.984375 69.390625 
L 28.421875 72.90625 
L 38.28125 72.90625 
L 38.28125 8.296875 
L 54.390625 8.296875 
L 54.390625 0 
L 12.40625 0 
z
" id="DejaVuSans-31"/>
     </defs>
     <g transform="translate(142.25 284.596563)scale(0.1 -0.1)">
      <use transform="translate(0 0.3125)" xlink:href="#DejaVuSans-Oblique-78"/>
      <use transform="translate(59.179688 -16.09375)scale(0.7)" xlink:href="#DejaVuSans-31"/>
     </g>
    </g>
   </g>
   <g id="matplotlib.axis_2">
    <g id="ytick_1">
     <g id="line2d_15">
      <path clip-path="url(#p059026d727)" d="M 36 256.32 
L 259.2 256.32 
" style="fill:none;stroke:#b0b0b0;stroke-linecap:square;stroke-width:0.8;"/>
     </g>
     <g id="line2d_16">
      <defs>
       <path d="M 0 0 
L -3.5 0 
" id="m3397c61d44" style="stroke:#000000;stroke-width:0.8;"/>
      </defs>
      <g>
       <use style="stroke:#000000;stroke-width:0.8;" x="36" xlink:href="#m3397c61d44" y="256.32"/>
      </g>
     </g>
     <g id="text_9">
      <!-- −3 -->
      <defs>
       <path d="M 40.578125 39.3125 
Q 47.65625 37.796875 51.625 33 
Q 55.609375 28.21875 55.609375 21.1875 
Q 55.609375 10.40625 48.1875 4.484375 
Q 40.765625 -1.421875 27.09375 -1.421875 
Q 22.515625 -1.421875 17.65625 -0.515625 
Q 12.796875 0.390625 7.625 2.203125 
L 7.625 11.71875 
Q 11.71875 9.328125 16.59375 8.109375 
Q 21.484375 6.890625 26.8125 6.890625 
Q 36.078125 6.890625 40.9375 10.546875 
Q 45.796875 14.203125 45.796875 21.1875 
Q 45.796875 27.640625 41.28125 31.265625 
Q 36.765625 34.90625 28.71875 34.90625 
L 20.21875 34.90625 
L 20.21875 43.015625 
L 29.109375 43.015625 
Q 36.375 43.015625 40.234375 45.921875 
Q 44.09375 48.828125 44.09375 54.296875 
Q 44.09375 59.90625 40.109375 62.90625 
Q 36.140625 65.921875 28.71875 65.921875 
Q 24.65625 65.921875 20.015625 65.03125 
Q 15.375 64.15625 9.8125 62.3125 
L 9.8125 71.09375 
Q 15.4375 72.65625 20.34375 73.4375 
Q 25.25 74.21875 29.59375 74.21875 
Q 40.828125 74.21875 47.359375 69.109375 
Q 53.90625 64.015625 53.90625 55.328125 
Q 53.90625 49.265625 50.4375 45.09375 
Q 46.96875 40.921875 40.578125 39.3125 
z
" id="DejaVuSans-33"/>
      </defs>
      <g transform="translate(14.257812 260.119219)scale(0.1 -0.1)">
       <use xlink:href="#DejaVuSans-2212"/>
       <use x="83.789062" xlink:href="#DejaVuSans-33"/>
      </g>
     </g>
    </g>
    <g id="ytick_2">
     <g id="line2d_17">
      <path clip-path="url(#p059026d727)" d="M 36 219.36 
L 259.2 219.36 
" style="fill:none;stroke:#b0b0b0;stroke-linecap:square;stroke-width:0.8;"/>
     </g>
     <g id="line2d_18">
      <g>
       <use style="stroke:#000000;stroke-width:0.8;" x="36" xlink:href="#m3397c61d44" y="219.36"/>
      </g>
     </g>
     <g id="text_10">
      <!-- −2 -->
      <g transform="translate(14.257812 223.159219)scale(0.1 -0.1)">
       <use xlink:href="#DejaVuSans-2212"/>
       <use x="83.789062" xlink:href="#DejaVuSans-32"/>
      </g>
     </g>
    </g>
    <g id="ytick_3">
     <g id="line2d_19">
      <path clip-path="url(#p059026d727)" d="M 36 182.4 
L 259.2 182.4 
" style="fill:none;stroke:#b0b0b0;stroke-linecap:square;stroke-width:0.8;"/>
     </g>
     <g id="line2d_20">
      <g>
       <use style="stroke:#000000;stroke-width:0.8;" x="36" xlink:href="#m3397c61d44" y="182.4"/>
      </g>
     </g>
     <g id="text_11">
      <!-- −1 -->
      <g transform="translate(14.257812 186.199219)scale(0.1 -0.1)">
       <use xlink:href="#DejaVuSans-2212"/>
       <use x="83.789062" xlink:href="#DejaVuSans-31"/>
      </g>
     </g>
    </g>
    <g id="ytick_4">
     <g id="line2d_21">
      <path clip-path="url(#p059026d727)" d="M 36 145.44 
L 259.2 145.44 
" style="fill:none;stroke:#b0b0b0;stroke-linecap:square;stroke-width:0.8;"/>
     </g>
     <g id="line2d_22">
      <g>
       <use style="stroke:#000000;stroke-width:0.8;" x="36" xlink:href="#m3397c61d44" y="145.44"/>
      </g>
     </g>
     <g id="text_12">
      <!-- 0 -->
      <g transform="translate(22.6375 149.239219)scale(0.1 -0.1)">
       <use xlink:href="#DejaVuSans-30"/>
      </g>
     </g>
    </g>
    <g id="ytick_5">
     <g id="line2d_23">
      <path clip-path="url(#p059026d727)" d="M 36 108.48 
L 259.2 108.48 
" style="fill:none;stroke:#b0b0b0;stroke-linecap:square;stroke-width:0.8;"/>
     </g>
     <g id="line2d_24">
      <g>
       <use style="stroke:#000000;stroke-width:0.8;" x="36" xlink:href="#m3397c61d44" y="108.48"/>
      </g>
     </g>
     <g id="text_13">
      <!-- 1 -->
      <g transform="translate(22.6375 112.279219)scale(0.1 -0.1)">
       <use xlink:href="#DejaVuSans-31"/>
      </g>
     </g>
    </g>
    <g id="ytick_6">
     <g id="line2d_25">
      <path clip-path="url(#p059026d727)" d="M 36 71.52 
L 259.2 71.52 
" style="fill:none;stroke:#b0b0b0;stroke-linecap:square;stroke-width:0.8;"/>
     </g>
     <g id="line2d_26">
      <g>
       <use style="stroke:#000000;stroke-width:0.8;" x="36" xlink:href="#m3397c61d44" y="71.52"/>
      </g>
     </g>
     <g id="text_14">
      <!-- 2 -->
      <g transform="translate(22.6375 75.319219)scale(0.1 -0.1)">
       <use xlink:href="#DejaVuSans-32"/>
      </g>
     </g>
    </g>
    <g id="ytick_7">
     <g id="line2d_27">
      <path clip-path="url(#p059026d727)" d="M 36 34.56 
L 259.2 34.56 
" style="fill:none;stroke:#b0b0b0;stroke-linecap:square;stroke-width:0.8;"/>
     </g>
     <g id="line2d_28">
      <g>
       <use style="stroke:#000000;stroke-width:0.8;" x="36" xlink:href="#m3397c61d44" y="34.56"/>
      </g>
     </g>
     <g id="text_15">
      <!-- 3 -->
      <g transform="translate(22.6375 38.359219)scale(0.1 -0.1)">
       <use xlink:href="#DejaVuSans-33"/>
      </g>
     </g>
    </g>
    <g id="text_16">
     <!-- $x_2$ -->
     <g transform="translate(8.178125 150.79)rotate(-90)scale(0.1 -0.1)">
      <use transform="translate(0 0.3125)" xlink:href="#DejaVuSans-Oblique-78"/>
      <use transform="translate(59.179688 -16.09375)scale(0.7)" xlink:href="#DejaVuSans-32"/>
     </g>
    </g>
   </g>
   <g id="patch_16">
    <path clip-path="url(#p059026d727)" d="M 167.128337 271.774759 
L 265.139414 297.742425 
L 376.218634 323.710091 
L 620.479227 374.891448 
L 1055.782126 453.479751 
L 1059.502675 453.479751 
L 1059.502675 446.08666 
L 1046.434531 394.151329 
L 1046.23321 393.74854 
L 1045.950711 393.183354 
L 1045.808246 392.898336 
L 1044.968739 391.220013 
L 1044.53807 390.359655 
L 1042.046889 385.473907 
L 1040.793175 383.063321 
L 1001.588744 331.127989 
L 936.248026 279.192658 
L 844.771022 227.257326 
L 727.15773 175.321994 
L 583.408151 123.386663 
L 413.746909 71.52 
L -158.682536 71.52 
L -158.682536 78.913068 
L -152.148464 104.880734 
L -151.576267 106.025544 
L -151.11054 106.957308 
L -150.252003 108.67243 
L -147.760822 113.558178 
L -146.507107 115.968764 
L -126.904892 141.93643 
L -94.234533 167.904096 
L -48.496031 193.871762 
L 10.310615 219.839428 
L 82.185404 245.807094 
z
" style="fill:none;stroke:#000000;stroke-linejoin:miter;stroke-width:2;"/>
   </g>
   <g id="patch_17">
    <path clip-path="url(#p059026d727)" d="M 81.225 236.566544 
L 166.167933 262.53421 
L 264.17901 288.501876 
L 375.25823 314.469542 
L 619.518823 365.650899 
L 1054.821722 444.239202 
L 1041.753578 392.30387 
L 1002.549148 340.368539 
L 937.20843 288.433207 
L 845.731426 236.497875 
L 728.118134 184.562544 
L 584.368555 132.627212 
L 414.707313 80.760549 
L -154.001583 80.760549 
L -147.467511 106.728215 
L -127.865296 132.695881 
L -95.194937 158.663547 
L -49.456435 184.631213 
L 9.350211 210.598878 
z
" style="fill:none;stroke:#000000;stroke-linejoin:miter;"/>
   </g>
   <g id="patch_18">
    <path clip-path="url(#p059026d727)" d="M 231.714384 219.770759 
L 235.434933 219.770759 
L 235.434933 212.377668 
L 222.886095 160.785552 
L 222.684774 160.382764 
L 222.402274 159.817577 
L 222.259809 159.53256 
L 221.420302 157.854237 
L 220.989633 156.993879 
L 218.498453 152.108131 
L 217.244738 149.697545 
L 138.300403 71.52 
L 134.264976 71.52 
L 134.264976 78.913068 
L 146.713905 130.094425 
L 147.286102 131.239235 
L 147.751829 132.170998 
L 148.610367 133.886121 
L 151.101547 138.771869 
L 152.355262 141.182455 
z
" style="fill:none;stroke:#000000;stroke-linejoin:miter;"/>
   </g>
   <g id="patch_19">
    <path clip-path="url(#p059026d727)" d="M 230.75398 210.530209 
L 218.205142 158.938094 
L 139.260807 80.760549 
L 138.945929 80.760549 
L 151.394858 131.941906 
z
" style="fill:none;stroke:#000000;stroke-linejoin:miter;"/>
   </g>
   <g id="patch_20">
    <path clip-path="url(#p059026d727)" d="M 87.196567 210.348543 
L 88.055105 212.063666 
L 90.546285 216.949414 
L 91.8 219.36 
L 95.520549 219.36 
L 95.520549 211.966909 
L 95.319228 211.564121 
L 95.036729 210.998934 
L 94.894263 210.713917 
L 94.054756 209.035594 
L 93.624088 208.175236 
L 91.132907 203.289488 
L 89.879192 200.878901 
L 86.158643 200.878901 
L 86.158643 208.271969 
L 86.73084 209.41678 
z
" style="fill:none;stroke:#000000;stroke-linejoin:miter;"/>
   </g>
   <g id="patch_21">
    <path clip-path="url(#p059026d727)" d="M 61.156567 177.084543 
L 62.015105 178.799666 
L 64.506285 183.685414 
L 65.76 186.096 
L 69.480549 186.096 
L 69.480549 178.702909 
L 69.279228 178.300121 
L 68.996729 177.734934 
L 68.854263 177.449917 
L 68.014756 175.771594 
L 67.584088 174.911236 
L 65.092907 170.025488 
L 63.839192 167.614901 
L 60.118643 167.614901 
L 60.118643 175.007969 
L 60.69084 176.15278 
z
" style="fill:none;stroke:#000000;stroke-linejoin:miter;"/>
   </g>
   <g id="patch_22">
    <path clip-path="url(#p059026d727)" d="M 51.856567 143.820543 
L 52.715105 145.535666 
L 55.206285 150.421414 
L 56.46 152.832 
L 60.180549 152.832 
L 60.180549 145.438909 
L 59.979228 145.036121 
L 59.696729 144.470934 
L 59.554263 144.185917 
L 58.714756 142.507594 
L 58.284088 141.647236 
L 55.792907 136.761488 
L 54.539192 134.350901 
L 50.818643 134.350901 
L 50.818643 141.743969 
L 51.39084 142.88878 
z
" style="fill:none;stroke:#000000;stroke-linejoin:miter;"/>
   </g>
   <g id="patch_23">
    <path clip-path="url(#p059026d727)" d="M 61.217924 114.252574 
L 62.076461 115.967696 
L 64.567642 120.853444 
L 65.821357 123.264031 
L 69.541906 123.264031 
L 69.541906 115.87094 
L 69.340585 115.468151 
L 69.058085 114.902965 
L 68.91562 114.617947 
L 68.076113 112.939624 
L 67.645444 112.079266 
L 65.154264 107.193518 
L 63.900549 104.782932 
L 60.18 104.782932 
L 60.18 112.176 
L 60.752197 113.32081 
z
" style="fill:none;stroke:#000000;stroke-linejoin:miter;"/>
   </g>
   <g id="patch_24">
    <path clip-path="url(#p059026d727)" d="M 83.562262 88.283848 
L 84.4208 89.99897 
L 86.911981 94.884718 
L 88.165695 97.295304 
L 91.886244 97.295304 
L 91.886244 89.902213 
L 91.684923 89.499425 
L 91.402424 88.934238 
L 91.259958 88.649221 
L 90.420452 86.970898 
L 89.989783 86.11054 
L 87.498602 81.224792 
L 86.244888 78.814206 
L 82.524339 78.814206 
L 82.524339 86.207274 
L 83.096536 87.352084 
z
" style="fill:none;stroke:#000000;stroke-linejoin:miter;"/>
   </g>
   <g id="patch_25">
    <path clip-path="url(#p059026d727)" d="M 114.276599 80.989649 
L 115.135137 82.704772 
L 117.626317 87.59052 
L 118.880032 90.001106 
L 122.600581 90.001106 
L 122.600581 82.608015 
L 122.39926 82.205227 
L 122.116761 81.64004 
L 121.974295 81.355023 
L 121.134788 79.6767 
L 120.70412 78.816342 
L 118.212939 73.930594 
L 116.959224 71.520008 
L 113.238675 71.520008 
L 113.238675 78.913076 
L 113.810872 80.057886 
z
" style="fill:none;stroke:#000000;stroke-linejoin:miter;"/>
   </g>
   <g id="patch_26">
    <path clip-path="url(#p059026d727)" d="M 150.25938 92.479897 
L 151.117918 94.195019 
L 153.609099 99.080767 
L 154.862813 101.491353 
L 158.583362 101.491353 
L 158.583362 94.098263 
L 158.382041 93.695474 
L 158.099542 93.130287 
L 157.957076 92.84527 
L 157.11757 91.166947 
L 156.686901 90.306589 
L 154.19572 85.420841 
L 152.942006 83.010255 
L 149.221457 83.010255 
L 149.221457 90.403323 
L 149.793654 91.548133 
z
" style="fill:none;stroke:#000000;stroke-linejoin:miter;"/>
   </g>
   <g id="patch_27">
    <path clip-path="url(#p059026d727)" d="M 174.722315 124.554149 
L 175.580853 126.269272 
L 178.072033 131.155019 
L 179.325748 133.565606 
L 183.046297 133.565606 
L 183.046297 126.172515 
L 182.844976 125.769726 
L 182.562477 125.20454 
L 182.420011 124.919522 
L 181.580504 123.241199 
L 181.149836 122.380841 
L 178.658655 117.495093 
L 177.40494 115.084507 
L 173.684391 115.084507 
L 173.684391 122.477575 
L 174.256588 123.622385 
z
" style="fill:none;stroke:#000000;stroke-linejoin:miter;"/>
   </g>
   <g id="patch_28">
    <path clip-path="url(#p059026d727)" d="M 181.183899 145.556204 
L 182.042436 147.271327 
L 184.533617 152.157075 
L 185.787332 154.567661 
L 189.507881 154.567661 
L 189.507881 147.17457 
L 189.30656 146.771782 
L 189.02406 146.206595 
L 188.881595 145.921578 
L 188.042088 144.243255 
L 187.611419 143.382897 
L 185.120239 138.497149 
L 183.866524 136.086563 
L 180.145975 136.086563 
L 180.145975 143.479631 
L 180.718172 144.624441 
z
" style="fill:none;stroke:#000000;stroke-linejoin:miter;"/>
   </g>
   <g id="line2d_29">
    <path clip-path="url(#p059026d727)" d="M 90.839596 210.119451 
L 64.799596 176.855451 
L 55.499596 143.591451 
L 64.860953 114.023481 
L 87.205291 88.054755 
L 117.919628 80.760557 
L 153.902409 92.250804 
L 178.365344 124.325056 
L 184.826928 145.327112 
" style="fill:none;stroke:#1f77b4;stroke-linecap:square;stroke-width:1.5;"/>
    <defs>
     <path d="M 0 3 
C 0.795609 3 1.55874 2.683901 2.12132 2.12132 
C 2.683901 1.55874 3 0.795609 3 0 
C 3 -0.795609 2.683901 -1.55874 2.12132 -2.12132 
C 1.55874 -2.683901 0.795609 -3 0 -3 
C -0.795609 -3 -1.55874 -2.683901 -2.12132 -2.12132 
C -2.683901 -1.55874 -3 -0.795609 -3 0 
C -3 0.795609 -2.683901 1.55874 -2.12132 2.12132 
C -1.55874 2.683901 -0.795609 3 0 3 
z
" id="me4a7f3a35c" style="stroke:#1f77b4;"/>
    </defs>
    <g clip-path="url(#p059026d727)">
     <use style="fill-opacity:0;stroke:#1f77b4;" x="90.839596" xlink:href="#me4a7f3a35c" y="210.119451"/>
     <use style="fill-opacity:0;stroke:#1f77b4;" x="64.799596" xlink:href="#me4a7f3a35c" y="176.855451"/>
     <use style="fill-opacity:0;stroke:#1f77b4;" x="55.499596" xlink:href="#me4a7f3a35c" y="143.591451"/>
     <use style="fill-opacity:0;stroke:#1f77b4;" x="64.860953" xlink:href="#me4a7f3a35c" y="114.023481"/>
     <use style="fill-opacity:0;stroke:#1f77b4;" x="87.205291" xlink:href="#me4a7f3a35c" y="88.054755"/>
     <use style="fill-opacity:0;stroke:#1f77b4;" x="117.919628" xlink:href="#me4a7f3a35c" y="80.760557"/>
     <use style="fill-opacity:0;stroke:#1f77b4;" x="153.902409" xlink:href="#me4a7f3a35c" y="92.250804"/>
     <use style="fill-opacity:0;stroke:#1f77b4;" x="178.365344" xlink:href="#me4a7f3a35c" y="124.325056"/>
     <use style="fill-opacity:0;stroke:#1f77b4;" x="184.826928" xlink:href="#me4a7f3a35c" y="145.327112"/>
    </g>
   </g>
   <g id="line2d_30">
    <path clip-path="url(#p059026d727)" d="M 91.8 219.36 
L 65.76 186.096 
L 56.46 152.832 
L 60.18 112.176 
L 82.524339 86.207274 
L 113.238675 71.520008 
L 149.221457 83.010255 
L 173.684391 115.084507 
L 184.364945 137.044905 
L 187.792333 151.301994 
" style="fill:none;stroke:#000000;stroke-dasharray:9.6,2.4,1.5,2.4;stroke-dashoffset:0;stroke-width:1.5;"/>
    <defs>
     <path d="M -3 3 
L 3 -3 
M -3 -3 
L 3 3 
" id="ma1332da16f" style="stroke:#000000;"/>
    </defs>
    <g clip-path="url(#p059026d727)">
     <use style="stroke:#000000;" x="91.8" xlink:href="#ma1332da16f" y="219.36"/>
     <use style="stroke:#000000;" x="65.76" xlink:href="#ma1332da16f" y="186.096"/>
     <use style="stroke:#000000;" x="56.46" xlink:href="#ma1332da16f" y="152.832"/>
     <use style="stroke:#000000;" x="60.18" xlink:href="#ma1332da16f" y="112.176"/>
     <use style="stroke:#000000;" x="82.524339" xlink:href="#ma1332da16f" y="86.207274"/>
     <use style="stroke:#000000;" x="113.238675" xlink:href="#ma1332da16f" y="71.520008"/>
     <use style="stroke:#000000;" x="149.221457" xlink:href="#ma1332da16f" y="83.010255"/>
     <use style="stroke:#000000;" x="173.684391" xlink:href="#ma1332da16f" y="115.084507"/>
     <use style="stroke:#000000;" x="184.364945" xlink:href="#ma1332da16f" y="137.044905"/>
     <use style="stroke:#000000;" x="187.792333" xlink:href="#ma1332da16f" y="151.301994"/>
    </g>
   </g>
   <g id="patch_29">
    <path d="M 36 256.32 
L 36 34.56 
" style="fill:none;stroke:#000000;stroke-linecap:square;stroke-linejoin:miter;stroke-width:0.8;"/>
   </g>
   <g id="patch_30">
    <path d="M 259.2 256.32 
L 259.2 34.56 
" style="fill:none;stroke:#000000;stroke-linecap:square;stroke-linejoin:miter;stroke-width:0.8;"/>
   </g>
   <g id="patch_31">
    <path d="M 36 256.32 
L 259.2 256.32 
" style="fill:none;stroke:#000000;stroke-linecap:square;stroke-linejoin:miter;stroke-width:0.8;"/>
   </g>
   <g id="patch_32">
    <path d="M 36 34.56 
L 259.2 34.56 
" style="fill:none;stroke:#000000;stroke-linecap:square;stroke-linejoin:miter;stroke-width:0.8;"/>
   </g>
   <g id="text_17">
    <!-- Tube-based robust MPC (Mayne et al., 2005) -->
    <defs>
     <path d="M -0.296875 72.90625 
L 61.375 72.90625 
L 61.375 64.59375 
L 35.5 64.59375 
L 35.5 0 
L 25.59375 0 
L 25.59375 64.59375 
L -0.296875 64.59375 
z
" id="DejaVuSans-54"/>
     <path d="M 8.5 21.578125 
L 8.5 54.6875 
L 17.484375 54.6875 
L 17.484375 21.921875 
Q 17.484375 14.15625 20.5 10.265625 
Q 23.53125 6.390625 29.59375 6.390625 
Q 36.859375 6.390625 41.078125 11.03125 
Q 45.3125 15.671875 45.3125 23.6875 
L 45.3125 54.6875 
L 54.296875 54.6875 
L 54.296875 0 
L 45.3125 0 
L 45.3125 8.40625 
Q 42.046875 3.421875 37.71875 1 
Q 33.40625 -1.421875 27.6875 -1.421875 
Q 18.265625 -1.421875 13.375 4.4375 
Q 8.5 10.296875 8.5 21.578125 
z
M 31.109375 56 
z
" id="DejaVuSans-75"/>
     <path d="M 48.6875 27.296875 
Q 48.6875 37.203125 44.609375 42.84375 
Q 40.53125 48.484375 33.40625 48.484375 
Q 26.265625 48.484375 22.1875 42.84375 
Q 18.109375 37.203125 18.109375 27.296875 
Q 18.109375 17.390625 22.1875 11.75 
Q 26.265625 6.109375 33.40625 6.109375 
Q 40.53125 6.109375 44.609375 11.75 
Q 48.6875 17.390625 48.6875 27.296875 
z
M 18.109375 46.390625 
Q 20.953125 51.265625 25.265625 53.625 
Q 29.59375 56 35.59375 56 
Q 45.5625 56 51.78125 48.09375 
Q 58.015625 40.1875 58.015625 27.296875 
Q 58.015625 14.40625 51.78125 6.484375 
Q 45.5625 -1.421875 35.59375 -1.421875 
Q 29.59375 -1.421875 25.265625 0.953125 
Q 20.953125 3.328125 18.109375 8.203125 
L 18.109375 0 
L 9.078125 0 
L 9.078125 75.984375 
L 18.109375 75.984375 
z
" id="DejaVuSans-62"/>
     <path d="M 56.203125 29.59375 
L 56.203125 25.203125 
L 14.890625 25.203125 
Q 15.484375 15.921875 20.484375 11.0625 
Q 25.484375 6.203125 34.421875 6.203125 
Q 39.59375 6.203125 44.453125 7.46875 
Q 49.3125 8.734375 54.109375 11.28125 
L 54.109375 2.78125 
Q 49.265625 0.734375 44.1875 -0.34375 
Q 39.109375 -1.421875 33.890625 -1.421875 
Q 20.796875 -1.421875 13.15625 6.1875 
Q 5.515625 13.8125 5.515625 26.8125 
Q 5.515625 40.234375 12.765625 48.109375 
Q 20.015625 56 32.328125 56 
Q 43.359375 56 49.78125 48.890625 
Q 56.203125 41.796875 56.203125 29.59375 
z
M 47.21875 32.234375 
Q 47.125 39.59375 43.09375 43.984375 
Q 39.0625 48.390625 32.421875 48.390625 
Q 24.90625 48.390625 20.390625 44.140625 
Q 15.875 39.890625 15.1875 32.171875 
z
" id="DejaVuSans-65"/>
     <path d="M 4.890625 31.390625 
L 31.203125 31.390625 
L 31.203125 23.390625 
L 4.890625 23.390625 
z
" id="DejaVuSans-2d"/>
     <path d="M 34.28125 27.484375 
Q 23.390625 27.484375 19.1875 25 
Q 14.984375 22.515625 14.984375 16.5 
Q 14.984375 11.71875 18.140625 8.90625 
Q 21.296875 6.109375 26.703125 6.109375 
Q 34.1875 6.109375 38.703125 11.40625 
Q 43.21875 16.703125 43.21875 25.484375 
L 43.21875 27.484375 
z
M 52.203125 31.203125 
L 52.203125 0 
L 43.21875 0 
L 43.21875 8.296875 
Q 40.140625 3.328125 35.546875 0.953125 
Q 30.953125 -1.421875 24.3125 -1.421875 
Q 15.921875 -1.421875 10.953125 3.296875 
Q 6 8.015625 6 15.921875 
Q 6 25.140625 12.171875 29.828125 
Q 18.359375 34.515625 30.609375 34.515625 
L 43.21875 34.515625 
L 43.21875 35.40625 
Q 43.21875 41.609375 39.140625 45 
Q 35.0625 48.390625 27.6875 48.390625 
Q 23 48.390625 18.546875 47.265625 
Q 14.109375 46.140625 10.015625 43.890625 
L 10.015625 52.203125 
Q 14.9375 54.109375 19.578125 55.046875 
Q 24.21875 56 28.609375 56 
Q 40.484375 56 46.34375 49.84375 
Q 52.203125 43.703125 52.203125 31.203125 
z
" id="DejaVuSans-61"/>
     <path d="M 44.28125 53.078125 
L 44.28125 44.578125 
Q 40.484375 46.53125 36.375 47.5 
Q 32.28125 48.484375 27.875 48.484375 
Q 21.1875 48.484375 17.84375 46.4375 
Q 14.5 44.390625 14.5 40.28125 
Q 14.5 37.15625 16.890625 35.375 
Q 19.28125 33.59375 26.515625 31.984375 
L 29.59375 31.296875 
Q 39.15625 29.25 43.1875 25.515625 
Q 47.21875 21.78125 47.21875 15.09375 
Q 47.21875 7.46875 41.1875 3.015625 
Q 35.15625 -1.421875 24.609375 -1.421875 
Q 20.21875 -1.421875 15.453125 -0.5625 
Q 10.6875 0.296875 5.421875 2 
L 5.421875 11.28125 
Q 10.40625 8.6875 15.234375 7.390625 
Q 20.0625 6.109375 24.8125 6.109375 
Q 31.15625 6.109375 34.5625 8.28125 
Q 37.984375 10.453125 37.984375 14.40625 
Q 37.984375 18.0625 35.515625 20.015625 
Q 33.0625 21.96875 24.703125 23.78125 
L 21.578125 24.515625 
Q 13.234375 26.265625 9.515625 29.90625 
Q 5.8125 33.546875 5.8125 39.890625 
Q 5.8125 47.609375 11.28125 51.796875 
Q 16.75 56 26.8125 56 
Q 31.78125 56 36.171875 55.265625 
Q 40.578125 54.546875 44.28125 53.078125 
z
" id="DejaVuSans-73"/>
     <path d="M 45.40625 46.390625 
L 45.40625 75.984375 
L 54.390625 75.984375 
L 54.390625 0 
L 45.40625 0 
L 45.40625 8.203125 
Q 42.578125 3.328125 38.25 0.953125 
Q 33.9375 -1.421875 27.875 -1.421875 
Q 17.96875 -1.421875 11.734375 6.484375 
Q 5.515625 14.40625 5.515625 27.296875 
Q 5.515625 40.1875 11.734375 48.09375 
Q 17.96875 56 27.875 56 
Q 33.9375 56 38.25 53.625 
Q 42.578125 51.265625 45.40625 46.390625 
z
M 14.796875 27.296875 
Q 14.796875 17.390625 18.875 11.75 
Q 22.953125 6.109375 30.078125 6.109375 
Q 37.203125 6.109375 41.296875 11.75 
Q 45.40625 17.390625 45.40625 27.296875 
Q 45.40625 37.203125 41.296875 42.84375 
Q 37.203125 48.484375 30.078125 48.484375 
Q 22.953125 48.484375 18.875 42.84375 
Q 14.796875 37.203125 14.796875 27.296875 
z
" id="DejaVuSans-64"/>
     <path id="DejaVuSans-20"/>
     <path d="M 41.109375 46.296875 
Q 39.59375 47.171875 37.8125 47.578125 
Q 36.03125 48 33.890625 48 
Q 26.265625 48 22.1875 43.046875 
Q 18.109375 38.09375 18.109375 28.8125 
L 18.109375 0 
L 9.078125 0 
L 9.078125 54.6875 
L 18.109375 54.6875 
L 18.109375 46.1875 
Q 20.953125 51.171875 25.484375 53.578125 
Q 30.03125 56 36.53125 56 
Q 37.453125 56 38.578125 55.875 
Q 39.703125 55.765625 41.0625 55.515625 
z
" id="DejaVuSans-72"/>
     <path d="M 30.609375 48.390625 
Q 23.390625 48.390625 19.1875 42.75 
Q 14.984375 37.109375 14.984375 27.296875 
Q 14.984375 17.484375 19.15625 11.84375 
Q 23.34375 6.203125 30.609375 6.203125 
Q 37.796875 6.203125 41.984375 11.859375 
Q 46.1875 17.53125 46.1875 27.296875 
Q 46.1875 37.015625 41.984375 42.703125 
Q 37.796875 48.390625 30.609375 48.390625 
z
M 30.609375 56 
Q 42.328125 56 49.015625 48.375 
Q 55.71875 40.765625 55.71875 27.296875 
Q 55.71875 13.875 49.015625 6.21875 
Q 42.328125 -1.421875 30.609375 -1.421875 
Q 18.84375 -1.421875 12.171875 6.21875 
Q 5.515625 13.875 5.515625 27.296875 
Q 5.515625 40.765625 12.171875 48.375 
Q 18.84375 56 30.609375 56 
z
" id="DejaVuSans-6f"/>
     <path d="M 18.3125 70.21875 
L 18.3125 54.6875 
L 36.8125 54.6875 
L 36.8125 47.703125 
L 18.3125 47.703125 
L 18.3125 18.015625 
Q 18.3125 11.328125 20.140625 9.421875 
Q 21.96875 7.515625 27.59375 7.515625 
L 36.8125 7.515625 
L 36.8125 0 
L 27.59375 0 
Q 17.1875 0 13.234375 3.875 
Q 9.28125 7.765625 9.28125 18.015625 
L 9.28125 47.703125 
L 2.6875 47.703125 
L 2.6875 54.6875 
L 9.28125 54.6875 
L 9.28125 70.21875 
z
" id="DejaVuSans-74"/>
     <path d="M 9.8125 72.90625 
L 24.515625 72.90625 
L 43.109375 23.296875 
L 61.8125 72.90625 
L 76.515625 72.90625 
L 76.515625 0 
L 66.890625 0 
L 66.890625 64.015625 
L 48.09375 14.015625 
L 38.1875 14.015625 
L 19.390625 64.015625 
L 19.390625 0 
L 9.8125 0 
z
" id="DejaVuSans-4d"/>
     <path d="M 19.671875 64.796875 
L 19.671875 37.40625 
L 32.078125 37.40625 
Q 38.96875 37.40625 42.71875 40.96875 
Q 46.484375 44.53125 46.484375 51.125 
Q 46.484375 57.671875 42.71875 61.234375 
Q 38.96875 64.796875 32.078125 64.796875 
z
M 9.8125 72.90625 
L 32.078125 72.90625 
Q 44.34375 72.90625 50.609375 67.359375 
Q 56.890625 61.8125 56.890625 51.125 
Q 56.890625 40.328125 50.609375 34.8125 
Q 44.34375 29.296875 32.078125 29.296875 
L 19.671875 29.296875 
L 19.671875 0 
L 9.8125 0 
z
" id="DejaVuSans-50"/>
     <path d="M 64.40625 67.28125 
L 64.40625 56.890625 
Q 59.421875 61.53125 53.78125 63.8125 
Q 48.140625 66.109375 41.796875 66.109375 
Q 29.296875 66.109375 22.65625 58.46875 
Q 16.015625 50.828125 16.015625 36.375 
Q 16.015625 21.96875 22.65625 14.328125 
Q 29.296875 6.6875 41.796875 6.6875 
Q 48.140625 6.6875 53.78125 8.984375 
Q 59.421875 11.28125 64.40625 15.921875 
L 64.40625 5.609375 
Q 59.234375 2.09375 53.4375 0.328125 
Q 47.65625 -1.421875 41.21875 -1.421875 
Q 24.65625 -1.421875 15.125 8.703125 
Q 5.609375 18.84375 5.609375 36.375 
Q 5.609375 53.953125 15.125 64.078125 
Q 24.65625 74.21875 41.21875 74.21875 
Q 47.75 74.21875 53.53125 72.484375 
Q 59.328125 70.75 64.40625 67.28125 
z
" id="DejaVuSans-43"/>
     <path d="M 31 75.875 
Q 24.46875 64.65625 21.28125 53.65625 
Q 18.109375 42.671875 18.109375 31.390625 
Q 18.109375 20.125 21.3125 9.0625 
Q 24.515625 -2 31 -13.1875 
L 23.1875 -13.1875 
Q 15.875 -1.703125 12.234375 9.375 
Q 8.59375 20.453125 8.59375 31.390625 
Q 8.59375 42.28125 12.203125 53.3125 
Q 15.828125 64.359375 23.1875 75.875 
z
" id="DejaVuSans-28"/>
     <path d="M 32.171875 -5.078125 
Q 28.375 -14.84375 24.75 -17.8125 
Q 21.140625 -20.796875 15.09375 -20.796875 
L 7.90625 -20.796875 
L 7.90625 -13.28125 
L 13.1875 -13.28125 
Q 16.890625 -13.28125 18.9375 -11.515625 
Q 21 -9.765625 23.484375 -3.21875 
L 25.09375 0.875 
L 2.984375 54.6875 
L 12.5 54.6875 
L 29.59375 11.921875 
L 46.6875 54.6875 
L 56.203125 54.6875 
z
" id="DejaVuSans-79"/>
     <path d="M 54.890625 33.015625 
L 54.890625 0 
L 45.90625 0 
L 45.90625 32.71875 
Q 45.90625 40.484375 42.875 44.328125 
Q 39.84375 48.1875 33.796875 48.1875 
Q 26.515625 48.1875 22.3125 43.546875 
Q 18.109375 38.921875 18.109375 30.90625 
L 18.109375 0 
L 9.078125 0 
L 9.078125 54.6875 
L 18.109375 54.6875 
L 18.109375 46.1875 
Q 21.34375 51.125 25.703125 53.5625 
Q 30.078125 56 35.796875 56 
Q 45.21875 56 50.046875 50.171875 
Q 54.890625 44.34375 54.890625 33.015625 
z
" id="DejaVuSans-6e"/>
     <path d="M 9.421875 75.984375 
L 18.40625 75.984375 
L 18.40625 0 
L 9.421875 0 
z
" id="DejaVuSans-6c"/>
     <path d="M 10.6875 12.40625 
L 21 12.40625 
L 21 0 
L 10.6875 0 
z
" id="DejaVuSans-2e"/>
     <path d="M 11.71875 12.40625 
L 22.015625 12.40625 
L 22.015625 4 
L 14.015625 -11.625 
L 7.71875 -11.625 
L 11.71875 4 
z
" id="DejaVuSans-2c"/>
     <path d="M 10.796875 72.90625 
L 49.515625 72.90625 
L 49.515625 64.59375 
L 19.828125 64.59375 
L 19.828125 46.734375 
Q 21.96875 47.46875 24.109375 47.828125 
Q 26.265625 48.1875 28.421875 48.1875 
Q 40.625 48.1875 47.75 41.5 
Q 54.890625 34.8125 54.890625 23.390625 
Q 54.890625 11.625 47.5625 5.09375 
Q 40.234375 -1.421875 26.90625 -1.421875 
Q 22.3125 -1.421875 17.546875 -0.640625 
Q 12.796875 0.140625 7.71875 1.703125 
L 7.71875 11.625 
Q 12.109375 9.234375 16.796875 8.0625 
Q 21.484375 6.890625 26.703125 6.890625 
Q 35.15625 6.890625 40.078125 11.328125 
Q 45.015625 15.765625 45.015625 23.390625 
Q 45.015625 31 40.078125 35.4375 
Q 35.15625 39.890625 26.703125 39.890625 
Q 22.75 39.890625 18.8125 39.015625 
Q 14.890625 38.140625 10.796875 36.28125 
z
" id="DejaVuSans-35"/>
     <path d="M 8.015625 75.875 
L 15.828125 75.875 
Q 23.140625 64.359375 26.78125 53.3125 
Q 30.421875 42.28125 30.421875 31.390625 
Q 30.421875 20.453125 26.78125 9.375 
Q 23.140625 -1.703125 15.828125 -13.1875 
L 8.015625 -13.1875 
Q 14.5 -2 17.703125 9.0625 
Q 20.90625 20.125 20.90625 31.390625 
Q 20.90625 42.671875 17.703125 53.65625 
Q 14.5 64.65625 8.015625 75.875 
z
" id="DejaVuSans-29"/>
    </defs>
    <g transform="translate(13.665 28.56)scale(0.12 -0.12)">
     <use xlink:href="#DejaVuSans-54"/>
     <use x="60.849609" xlink:href="#DejaVuSans-75"/>
     <use x="124.228516" xlink:href="#DejaVuSans-62"/>
     <use x="187.705078" xlink:href="#DejaVuSans-65"/>
     <use x="249.228516" xlink:href="#DejaVuSans-2d"/>
     <use x="285.3125" xlink:href="#DejaVuSans-62"/>
     <use x="348.789062" xlink:href="#DejaVuSans-61"/>
     <use x="410.068359" xlink:href="#DejaVuSans-73"/>
     <use x="462.167969" xlink:href="#DejaVuSans-65"/>
     <use x="523.691406" xlink:href="#DejaVuSans-64"/>
     <use x="587.167969" xlink:href="#DejaVuSans-20"/>
     <use x="618.955078" xlink:href="#DejaVuSans-72"/>
     <use x="660.037109" xlink:href="#DejaVuSans-6f"/>
     <use x="721.21875" xlink:href="#DejaVuSans-62"/>
     <use x="784.695312" xlink:href="#DejaVuSans-75"/>
     <use x="848.074219" xlink:href="#DejaVuSans-73"/>
     <use x="900.173828" xlink:href="#DejaVuSans-74"/>
     <use x="939.382812" xlink:href="#DejaVuSans-20"/>
     <use x="971.169922" xlink:href="#DejaVuSans-4d"/>
     <use x="1057.449219" xlink:href="#DejaVuSans-50"/>
     <use x="1117.751953" xlink:href="#DejaVuSans-43"/>
     <use x="1187.576172" xlink:href="#DejaVuSans-20"/>
     <use x="1219.363281" xlink:href="#DejaVuSans-28"/>
     <use x="1258.376953" xlink:href="#DejaVuSans-4d"/>
     <use x="1344.65625" xlink:href="#DejaVuSans-61"/>
     <use x="1405.935547" xlink:href="#DejaVuSans-79"/>
     <use x="1465.115234" xlink:href="#DejaVuSans-6e"/>
     <use x="1528.494141" xlink:href="#DejaVuSans-65"/>
     <use x="1590.017578" xlink:href="#DejaVuSans-20"/>
     <use x="1621.804688" xlink:href="#DejaVuSans-65"/>
     <use x="1683.328125" xlink:href="#DejaVuSans-74"/>
     <use x="1722.537109" xlink:href="#DejaVuSans-20"/>
     <use x="1754.324219" xlink:href="#DejaVuSans-61"/>
     <use x="1815.603516" xlink:href="#DejaVuSans-6c"/>
     <use x="1843.386719" xlink:href="#DejaVuSans-2e"/>
     <use x="1875.173828" xlink:href="#DejaVuSans-2c"/>
     <use x="1906.960938" xlink:href="#DejaVuSans-20"/>
     <use x="1938.748047" xlink:href="#DejaVuSans-32"/>
     <use x="2002.371094" xlink:href="#DejaVuSans-30"/>
     <use x="2065.994141" xlink:href="#DejaVuSans-30"/>
     <use x="2129.617188" xlink:href="#DejaVuSans-35"/>
     <use x="2193.240234" xlink:href="#DejaVuSans-29"/>
    </g>
   </g>
  </g>
 </g>
 <defs>
  <clipPath id="p059026d727">
   <rect height="221.76" width="223.2" x="36" y="34.56"/>
  </clipPath>
 </defs>
</svg>
