<?xml version="1.0" encoding="utf-8" standalone="no"?>
<!DOCTYPE svg PUBLIC "-//W3C//DTD SVG 1.1//EN"
  "http://www.w3.org/Graphics/SVG/1.1/DTD/svg11.dtd">
<!-- Created with matplotlib (http://matplotlib.org/) -->
<svg height="288pt" version="1.1" viewBox="0 0 288 288" width="288pt" xmlns="http://www.w3.org/2000/svg" xmlns:xlink="http://www.w3.org/1999/xlink">
 <defs>
  <style type="text/css">
*{stroke-linecap:butt;stroke-linejoin:round;}
  </style>
 </defs>
 <g id="figure_1">
  <g id="patch_1">
   <path d="M 0 288 
L 288 288 
L 288 0 
L 0 0 
z
" style="fill:#ffffff;"/>
  </g>
  <g id="axes_1">
   <g id="patch_2">
    <path d="M 36 256.32 
L 259.2 256.32 
L 259.2 34.56 
L 36 34.56 
z
" style="fill:#ffffff;"/>
   </g>
   <g id="patch_3">
    <path clip-path="url(#p5cb7d8256c)" d="M 73.2 182.4 
L 222 182.4 
L 222 108.48 
L 73.2 108.48 
z
" style="fill:#d3d3d3;"/>
   </g>
   <g id="patch_4">
    <path clip-path="url(#p5cb7d8256c)" d="M 58.32 152.832 
L 58.32 226.752 
L 207.12 226.752 
L 211.584 224.5344 
L 236.88 138.048 
L 236.88 64.128 
L 88.08 64.128 
L 83.616 66.3456 
z
" style="fill:#d3d3d3;"/>
   </g>
   <g id="patch_5">
    <path clip-path="url(#p5cb7d8256c)" d="M 53.112 162.8112 
L 53.112 236.7312 
L 201.912 236.7312 
L 206.376 234.5136 
L 215.8992 217.21632 
L 216.792 214.5552 
L 242.088 128.0688 
L 242.088 54.1488 
L 93.288 54.1488 
L 88.824 56.3664 
L 79.3008 73.66368 
L 78.408 76.3248 
z
" style="fill:#d3d3d3;"/>
   </g>
   <g id="patch_6">
    <path clip-path="url(#p5cb7d8256c)" d="M 51.624 166.1376 
L 51.624 240.0576 
L 200.424 240.0576 
L 204.888 237.84 
L 214.4112 220.54272 
L 214.72368 219.943968 
L 217.3872 213.88992 
L 218.28 211.2288 
L 243.576 124.7424 
L 243.576 50.8224 
L 94.776 50.8224 
L 90.312 53.04 
L 80.7888 70.33728 
L 80.47632 70.936032 
L 77.8128 76.99008 
L 76.92 79.6512 
z
" style="fill:#d3d3d3;"/>
   </g>
   <g id="patch_7">
    <path clip-path="url(#p5cb7d8256c)" d="M 51.17016 167.102256 
L 51.17016 241.022256 
L 199.97016 241.022256 
L 204.43416 238.804656 
L 213.95736 221.507376 
L 214.26984 220.908624 
L 215.08824 219.178896 
L 215.17752 218.979312 
L 217.84104 212.925264 
L 218.73384 210.264144 
L 244.02984 123.777744 
L 244.02984 49.857744 
L 95.22984 49.857744 
L 90.76584 52.075344 
L 81.24264 69.372624 
L 80.93016 69.971376 
L 80.11176 71.701104 
L 80.02248 71.900688 
L 77.35896 77.954736 
L 76.46616 80.615856 
z
" style="fill:#d3d3d3;"/>
   </g>
   <g id="patch_8">
    <path clip-path="url(#p5cb7d8256c)" d="M 51.034752 167.394979 
L 51.034752 241.314979 
L 199.834752 241.314979 
L 204.298752 239.097379 
L 213.821952 221.800099 
L 214.134432 221.201347 
L 214.952832 219.471619 
L 214.980062 219.41374 
L 215.223648 218.886173 
L 215.312928 218.686589 
L 217.976448 212.632541 
L 218.869248 209.971421 
L 244.165248 123.485021 
L 244.165248 49.565021 
L 95.365248 49.565021 
L 90.901248 51.782621 
L 81.378048 69.079901 
L 81.065568 69.678653 
L 80.247168 71.408381 
L 80.219938 71.46626 
L 79.976352 71.993827 
L 79.887072 72.193411 
L 77.223552 78.247459 
L 76.330752 80.908579 
z
" style="fill:#d3d3d3;"/>
   </g>
   <g id="patch_9">
    <path clip-path="url(#p5cb7d8256c)" d="M 50.994055 167.482464 
L 50.994055 241.402464 
L 199.794055 241.402464 
L 204.258055 239.184864 
L 213.781255 221.887584 
L 214.093735 221.288832 
L 214.912135 219.559104 
L 214.939366 219.501224 
L 215.012635 219.343819 
L 215.020759 219.326256 
L 215.264345 218.798688 
L 215.353625 218.599104 
L 218.017145 212.545056 
L 218.909945 209.883936 
L 244.205945 123.397536 
L 244.205945 49.477536 
L 95.405945 49.477536 
L 90.941945 51.695136 
L 81.418745 68.992416 
L 81.106265 69.591168 
L 80.287865 71.320896 
L 80.260634 71.378776 
L 80.187365 71.536181 
L 80.179241 71.553744 
L 79.935655 72.081312 
L 79.846375 72.280896 
L 77.182855 78.334944 
L 76.290055 80.996064 
z
" style="fill:#d3d3d3;"/>
   </g>
   <g id="patch_10">
    <path clip-path="url(#p5cb7d8256c)" d="M 50.981854 167.508742 
L 50.981854 241.428742 
L 199.781854 241.428742 
L 204.245854 239.211142 
L 213.769054 221.913862 
L 214.081534 221.31511 
L 214.899934 219.585382 
L 214.927164 219.527503 
L 215.000433 219.370097 
L 215.002875 219.364848 
L 215.024836 219.31754 
L 215.032961 219.299977 
L 215.276546 218.77241 
L 215.365826 218.572826 
L 218.029346 212.518778 
L 218.922146 209.857658 
L 244.218146 123.371258 
L 244.218146 49.451258 
L 95.418146 49.451258 
L 90.954146 51.668858 
L 81.430946 68.966138 
L 81.118466 69.56489 
L 80.300066 71.294618 
L 80.272836 71.352497 
L 80.199567 71.509903 
L 80.197125 71.515152 
L 80.175164 71.56246 
L 80.167039 71.580023 
L 79.923454 72.10759 
L 79.834174 72.307174 
L 77.170654 78.361222 
L 76.277854 81.022342 
z
" style="fill:#d3d3d3;"/>
   </g>
   <g id="patch_11">
    <path clip-path="url(#p5cb7d8256c)" d="M 50.978192 167.516622 
L 50.978192 241.436622 
L 199.778192 241.436622 
L 204.242192 239.219022 
L 213.765392 221.921742 
L 214.077872 221.32299 
L 214.896272 219.593262 
L 214.923503 219.535383 
L 214.996772 219.377978 
L 214.999214 219.372729 
L 215.005804 219.358545 
L 215.006536 219.356968 
L 215.028498 219.30966 
L 215.036622 219.292097 
L 215.280208 218.76453 
L 215.369488 218.564946 
L 218.033008 212.510898 
L 218.925808 209.849778 
L 244.221808 123.363378 
L 244.221808 49.443378 
L 95.421808 49.443378 
L 90.957808 51.660978 
L 81.434608 68.958258 
L 81.122128 69.55701 
L 80.303728 71.286738 
L 80.276497 71.344617 
L 80.203228 71.502022 
L 80.200786 71.507271 
L 80.194196 71.521455 
L 80.193464 71.523032 
L 80.171502 71.57034 
L 80.163378 71.587903 
L 79.919792 72.11547 
L 79.830512 72.315054 
L 77.166992 78.369102 
L 76.274192 81.030222 
z
" style="fill:#d3d3d3;"/>
   </g>
   <g id="patch_12">
    <path clip-path="url(#p5cb7d8256c)" d="M 50.977094 167.518987 
L 50.977094 241.438987 
L 199.777094 241.438987 
L 204.241094 239.221387 
L 213.764294 221.924107 
L 214.076774 221.325355 
L 214.895174 219.595627 
L 214.922404 219.537747 
L 214.995674 219.380342 
L 214.998115 219.375093 
L 215.004706 219.360909 
L 215.004925 219.360436 
L 215.006902 219.35618 
L 215.007634 219.354604 
L 215.029596 219.307296 
L 215.03772 219.289732 
L 215.281306 218.762165 
L 215.370586 218.562581 
L 218.034106 212.508533 
L 218.926906 209.847413 
L 244.222906 123.361013 
L 244.222906 49.441013 
L 95.422906 49.441013 
L 90.958906 51.658613 
L 81.435706 68.955893 
L 81.123226 69.554645 
L 80.304826 71.284373 
L 80.277596 71.342253 
L 80.204326 71.499658 
L 80.201885 71.504907 
L 80.195294 71.519091 
L 80.195075 71.519564 
L 80.193098 71.52382 
L 80.192366 71.525396 
L 80.170404 71.572704 
L 80.16228 71.590268 
L 79.918694 72.117835 
L 79.829414 72.317419 
L 77.165894 78.371467 
L 76.273094 81.032587 
z
" style="fill:#d3d3d3;"/>
   </g>
   <g id="matplotlib.axis_1">
    <g id="xtick_1">
     <g id="line2d_1">
      <path clip-path="url(#p5cb7d8256c)" d="M 36 256.32 
L 36 34.56 
" style="fill:none;stroke:#b0b0b0;stroke-linecap:square;stroke-width:0.8;"/>
     </g>
     <g id="line2d_2">
      <defs>
       <path d="M 0 0 
L 0 3.5 
" id="m445d7517fd" style="stroke:#000000;stroke-width:0.8;"/>
      </defs>
      <g>
       <use style="stroke:#000000;stroke-width:0.8;" x="36" xlink:href="#m445d7517fd" y="256.32"/>
      </g>
     </g>
     <g id="text_1">
      <!-- −1.5 -->
      <defs>
       <path d="M 10.59375 35.5 
L 73.1875 35.5 
L 73.1875 27.203125 
L 10.59375 27.203125 
z
" id="DejaVuSans-2212"/>
       <path d="M 12.40625 8.296875 
L 28.515625 8.296875 
L 28.515625 63.921875 
L 10.984375 60.40625 
L 10.984375 69.390625 
L 28.421875 72.90625 
L 38.28125 72.90625 
L 38.28125 8.296875 
L 54.390625 8.296875 
L 54.390625 0 
L 12.40625 0 
z
" id="DejaVuSans-31"/>
       <path d="M 10.6875 12.40625 
L 21 12.40625 
L 21 0 
L 10.6875 0 
z
" id="DejaVuSans-2e"/>
       <path d="M 10.796875 72.90625 
L 49.515625 72.90625 
L 49.515625 64.59375 
L 19.828125 64.59375 
L 19.828125 46.734375 
Q 21.96875 47.46875 24.109375 47.828125 
Q 26.265625 48.1875 28.421875 48.1875 
Q 40.625 48.1875 47.75 41.5 
Q 54.890625 34.8125 54.890625 23.390625 
Q 54.890625 11.625 47.5625 5.09375 
Q 40.234375 -1.421875 26.90625 -1.421875 
Q 22.3125 -1.421875 17.546875 -0.640625 
Q 12.796875 0.140625 7.71875 1.703125 
L 7.71875 11.625 
Q 12.109375 9.234375 16.796875 8.0625 
Q 21.484375 6.890625 26.703125 6.890625 
Q 35.15625 6.890625 40.078125 11.328125 
Q 45.015625 15.765625 45.015625 23.390625 
Q 45.015625 31 40.078125 35.4375 
Q 35.15625 39.890625 26.703125 39.890625 
Q 22.75 39.890625 18.8125 39.015625 
Q 14.890625 38.140625 10.796875 36.28125 
z
" id="DejaVuSans-35"/>
      </defs>
      <g transform="translate(23.858594 270.918437)scale(0.1 -0.1)">
       <use xlink:href="#DejaVuSans-2212"/>
       <use x="83.789062" xlink:href="#DejaVuSans-31"/>
       <use x="147.412109" xlink:href="#DejaVuSans-2e"/>
       <use x="179.199219" xlink:href="#DejaVuSans-35"/>
      </g>
     </g>
    </g>
    <g id="xtick_2">
     <g id="line2d_3">
      <path clip-path="url(#p5cb7d8256c)" d="M 73.2 256.32 
L 73.2 34.56 
" style="fill:none;stroke:#b0b0b0;stroke-linecap:square;stroke-width:0.8;"/>
     </g>
     <g id="line2d_4">
      <g>
       <use style="stroke:#000000;stroke-width:0.8;" x="73.2" xlink:href="#m445d7517fd" y="256.32"/>
      </g>
     </g>
     <g id="text_2">
      <!-- −1.0 -->
      <defs>
       <path d="M 31.78125 66.40625 
Q 24.171875 66.40625 20.328125 58.90625 
Q 16.5 51.421875 16.5 36.375 
Q 16.5 21.390625 20.328125 13.890625 
Q 24.171875 6.390625 31.78125 6.390625 
Q 39.453125 6.390625 43.28125 13.890625 
Q 47.125 21.390625 47.125 36.375 
Q 47.125 51.421875 43.28125 58.90625 
Q 39.453125 66.40625 31.78125 66.40625 
z
M 31.78125 74.21875 
Q 44.046875 74.21875 50.515625 64.515625 
Q 56.984375 54.828125 56.984375 36.375 
Q 56.984375 17.96875 50.515625 8.265625 
Q 44.046875 -1.421875 31.78125 -1.421875 
Q 19.53125 -1.421875 13.0625 8.265625 
Q 6.59375 17.96875 6.59375 36.375 
Q 6.59375 54.828125 13.0625 64.515625 
Q 19.53125 74.21875 31.78125 74.21875 
z
" id="DejaVuSans-30"/>
      </defs>
      <g transform="translate(61.058594 270.918437)scale(0.1 -0.1)">
       <use xlink:href="#DejaVuSans-2212"/>
       <use x="83.789062" xlink:href="#DejaVuSans-31"/>
       <use x="147.412109" xlink:href="#DejaVuSans-2e"/>
       <use x="179.199219" xlink:href="#DejaVuSans-30"/>
      </g>
     </g>
    </g>
    <g id="xtick_3">
     <g id="line2d_5">
      <path clip-path="url(#p5cb7d8256c)" d="M 110.4 256.32 
L 110.4 34.56 
" style="fill:none;stroke:#b0b0b0;stroke-linecap:square;stroke-width:0.8;"/>
     </g>
     <g id="line2d_6">
      <g>
       <use style="stroke:#000000;stroke-width:0.8;" x="110.4" xlink:href="#m445d7517fd" y="256.32"/>
      </g>
     </g>
     <g id="text_3">
      <!-- −0.5 -->
      <g transform="translate(98.258594 270.918437)scale(0.1 -0.1)">
       <use xlink:href="#DejaVuSans-2212"/>
       <use x="83.789062" xlink:href="#DejaVuSans-30"/>
       <use x="147.412109" xlink:href="#DejaVuSans-2e"/>
       <use x="179.199219" xlink:href="#DejaVuSans-35"/>
      </g>
     </g>
    </g>
    <g id="xtick_4">
     <g id="line2d_7">
      <path clip-path="url(#p5cb7d8256c)" d="M 147.6 256.32 
L 147.6 34.56 
" style="fill:none;stroke:#b0b0b0;stroke-linecap:square;stroke-width:0.8;"/>
     </g>
     <g id="line2d_8">
      <g>
       <use style="stroke:#000000;stroke-width:0.8;" x="147.6" xlink:href="#m445d7517fd" y="256.32"/>
      </g>
     </g>
     <g id="text_4">
      <!-- 0.0 -->
      <g transform="translate(139.648438 270.918437)scale(0.1 -0.1)">
       <use xlink:href="#DejaVuSans-30"/>
       <use x="63.623047" xlink:href="#DejaVuSans-2e"/>
       <use x="95.410156" xlink:href="#DejaVuSans-30"/>
      </g>
     </g>
    </g>
    <g id="xtick_5">
     <g id="line2d_9">
      <path clip-path="url(#p5cb7d8256c)" d="M 184.8 256.32 
L 184.8 34.56 
" style="fill:none;stroke:#b0b0b0;stroke-linecap:square;stroke-width:0.8;"/>
     </g>
     <g id="line2d_10">
      <g>
       <use style="stroke:#000000;stroke-width:0.8;" x="184.8" xlink:href="#m445d7517fd" y="256.32"/>
      </g>
     </g>
     <g id="text_5">
      <!-- 0.5 -->
      <g transform="translate(176.848437 270.918437)scale(0.1 -0.1)">
       <use xlink:href="#DejaVuSans-30"/>
       <use x="63.623047" xlink:href="#DejaVuSans-2e"/>
       <use x="95.410156" xlink:href="#DejaVuSans-35"/>
      </g>
     </g>
    </g>
    <g id="xtick_6">
     <g id="line2d_11">
      <path clip-path="url(#p5cb7d8256c)" d="M 222 256.32 
L 222 34.56 
" style="fill:none;stroke:#b0b0b0;stroke-linecap:square;stroke-width:0.8;"/>
     </g>
     <g id="line2d_12">
      <g>
       <use style="stroke:#000000;stroke-width:0.8;" x="222" xlink:href="#m445d7517fd" y="256.32"/>
      </g>
     </g>
     <g id="text_6">
      <!-- 1.0 -->
      <g transform="translate(214.048438 270.918437)scale(0.1 -0.1)">
       <use xlink:href="#DejaVuSans-31"/>
       <use x="63.623047" xlink:href="#DejaVuSans-2e"/>
       <use x="95.410156" xlink:href="#DejaVuSans-30"/>
      </g>
     </g>
    </g>
    <g id="xtick_7">
     <g id="line2d_13">
      <path clip-path="url(#p5cb7d8256c)" d="M 259.2 256.32 
L 259.2 34.56 
" style="fill:none;stroke:#b0b0b0;stroke-linecap:square;stroke-width:0.8;"/>
     </g>
     <g id="line2d_14">
      <g>
       <use style="stroke:#000000;stroke-width:0.8;" x="259.2" xlink:href="#m445d7517fd" y="256.32"/>
      </g>
     </g>
     <g id="text_7">
      <!-- 1.5 -->
      <g transform="translate(251.248437 270.918437)scale(0.1 -0.1)">
       <use xlink:href="#DejaVuSans-31"/>
       <use x="63.623047" xlink:href="#DejaVuSans-2e"/>
       <use x="95.410156" xlink:href="#DejaVuSans-35"/>
      </g>
     </g>
    </g>
    <g id="text_8">
     <!-- $x_1$ -->
     <defs>
      <path d="M 60.015625 54.6875 
L 34.90625 27.875 
L 50.296875 0 
L 39.984375 0 
L 28.421875 21.6875 
L 8.296875 0 
L -2.59375 0 
L 24.3125 28.8125 
L 10.015625 54.6875 
L 20.3125 54.6875 
L 30.8125 34.90625 
L 49.125 54.6875 
z
" id="DejaVuSans-Oblique-78"/>
     </defs>
     <g transform="translate(142.25 284.596563)scale(0.1 -0.1)">
      <use transform="translate(0 0.3125)" xlink:href="#DejaVuSans-Oblique-78"/>
      <use transform="translate(59.179688 -16.09375)scale(0.7)" xlink:href="#DejaVuSans-31"/>
     </g>
    </g>
   </g>
   <g id="matplotlib.axis_2">
    <g id="ytick_1">
     <g id="line2d_15">
      <path clip-path="url(#p5cb7d8256c)" d="M 36 256.32 
L 259.2 256.32 
" style="fill:none;stroke:#b0b0b0;stroke-linecap:square;stroke-width:0.8;"/>
     </g>
     <g id="line2d_16">
      <defs>
       <path d="M 0 0 
L -3.5 0 
" id="m5d49ac537e" style="stroke:#000000;stroke-width:0.8;"/>
      </defs>
      <g>
       <use style="stroke:#000000;stroke-width:0.8;" x="36" xlink:href="#m5d49ac537e" y="256.32"/>
      </g>
     </g>
     <g id="text_9">
      <!-- −3 -->
      <defs>
       <path d="M 40.578125 39.3125 
Q 47.65625 37.796875 51.625 33 
Q 55.609375 28.21875 55.609375 21.1875 
Q 55.609375 10.40625 48.1875 4.484375 
Q 40.765625 -1.421875 27.09375 -1.421875 
Q 22.515625 -1.421875 17.65625 -0.515625 
Q 12.796875 0.390625 7.625 2.203125 
L 7.625 11.71875 
Q 11.71875 9.328125 16.59375 8.109375 
Q 21.484375 6.890625 26.8125 6.890625 
Q 36.078125 6.890625 40.9375 10.546875 
Q 45.796875 14.203125 45.796875 21.1875 
Q 45.796875 27.640625 41.28125 31.265625 
Q 36.765625 34.90625 28.71875 34.90625 
L 20.21875 34.90625 
L 20.21875 43.015625 
L 29.109375 43.015625 
Q 36.375 43.015625 40.234375 45.921875 
Q 44.09375 48.828125 44.09375 54.296875 
Q 44.09375 59.90625 40.109375 62.90625 
Q 36.140625 65.921875 28.71875 65.921875 
Q 24.65625 65.921875 20.015625 65.03125 
Q 15.375 64.15625 9.8125 62.3125 
L 9.8125 71.09375 
Q 15.4375 72.65625 20.34375 73.4375 
Q 25.25 74.21875 29.59375 74.21875 
Q 40.828125 74.21875 47.359375 69.109375 
Q 53.90625 64.015625 53.90625 55.328125 
Q 53.90625 49.265625 50.4375 45.09375 
Q 46.96875 40.921875 40.578125 39.3125 
z
" id="DejaVuSans-33"/>
      </defs>
      <g transform="translate(14.257812 260.119219)scale(0.1 -0.1)">
       <use xlink:href="#DejaVuSans-2212"/>
       <use x="83.789062" xlink:href="#DejaVuSans-33"/>
      </g>
     </g>
    </g>
    <g id="ytick_2">
     <g id="line2d_17">
      <path clip-path="url(#p5cb7d8256c)" d="M 36 219.36 
L 259.2 219.36 
" style="fill:none;stroke:#b0b0b0;stroke-linecap:square;stroke-width:0.8;"/>
     </g>
     <g id="line2d_18">
      <g>
       <use style="stroke:#000000;stroke-width:0.8;" x="36" xlink:href="#m5d49ac537e" y="219.36"/>
      </g>
     </g>
     <g id="text_10">
      <!-- −2 -->
      <defs>
       <path d="M 19.1875 8.296875 
L 53.609375 8.296875 
L 53.609375 0 
L 7.328125 0 
L 7.328125 8.296875 
Q 12.9375 14.109375 22.625 23.890625 
Q 32.328125 33.6875 34.8125 36.53125 
Q 39.546875 41.84375 41.421875 45.53125 
Q 43.3125 49.21875 43.3125 52.78125 
Q 43.3125 58.59375 39.234375 62.25 
Q 35.15625 65.921875 28.609375 65.921875 
Q 23.96875 65.921875 18.8125 64.3125 
Q 13.671875 62.703125 7.8125 59.421875 
L 7.8125 69.390625 
Q 13.765625 71.78125 18.9375 73 
Q 24.125 74.21875 28.421875 74.21875 
Q 39.75 74.21875 46.484375 68.546875 
Q 53.21875 62.890625 53.21875 53.421875 
Q 53.21875 48.921875 51.53125 44.890625 
Q 49.859375 40.875 45.40625 35.40625 
Q 44.1875 33.984375 37.640625 27.21875 
Q 31.109375 20.453125 19.1875 8.296875 
z
" id="DejaVuSans-32"/>
      </defs>
      <g transform="translate(14.257812 223.159219)scale(0.1 -0.1)">
       <use xlink:href="#DejaVuSans-2212"/>
       <use x="83.789062" xlink:href="#DejaVuSans-32"/>
      </g>
     </g>
    </g>
    <g id="ytick_3">
     <g id="line2d_19">
      <path clip-path="url(#p5cb7d8256c)" d="M 36 182.4 
L 259.2 182.4 
" style="fill:none;stroke:#b0b0b0;stroke-linecap:square;stroke-width:0.8;"/>
     </g>
     <g id="line2d_20">
      <g>
       <use style="stroke:#000000;stroke-width:0.8;" x="36" xlink:href="#m5d49ac537e" y="182.4"/>
      </g>
     </g>
     <g id="text_11">
      <!-- −1 -->
      <g transform="translate(14.257812 186.199219)scale(0.1 -0.1)">
       <use xlink:href="#DejaVuSans-2212"/>
       <use x="83.789062" xlink:href="#DejaVuSans-31"/>
      </g>
     </g>
    </g>
    <g id="ytick_4">
     <g id="line2d_21">
      <path clip-path="url(#p5cb7d8256c)" d="M 36 145.44 
L 259.2 145.44 
" style="fill:none;stroke:#b0b0b0;stroke-linecap:square;stroke-width:0.8;"/>
     </g>
     <g id="line2d_22">
      <g>
       <use style="stroke:#000000;stroke-width:0.8;" x="36" xlink:href="#m5d49ac537e" y="145.44"/>
      </g>
     </g>
     <g id="text_12">
      <!-- 0 -->
      <g transform="translate(22.6375 149.239219)scale(0.1 -0.1)">
       <use xlink:href="#DejaVuSans-30"/>
      </g>
     </g>
    </g>
    <g id="ytick_5">
     <g id="line2d_23">
      <path clip-path="url(#p5cb7d8256c)" d="M 36 108.48 
L 259.2 108.48 
" style="fill:none;stroke:#b0b0b0;stroke-linecap:square;stroke-width:0.8;"/>
     </g>
     <g id="line2d_24">
      <g>
       <use style="stroke:#000000;stroke-width:0.8;" x="36" xlink:href="#m5d49ac537e" y="108.48"/>
      </g>
     </g>
     <g id="text_13">
      <!-- 1 -->
      <g transform="translate(22.6375 112.279219)scale(0.1 -0.1)">
       <use xlink:href="#DejaVuSans-31"/>
      </g>
     </g>
    </g>
    <g id="ytick_6">
     <g id="line2d_25">
      <path clip-path="url(#p5cb7d8256c)" d="M 36 71.52 
L 259.2 71.52 
" style="fill:none;stroke:#b0b0b0;stroke-linecap:square;stroke-width:0.8;"/>
     </g>
     <g id="line2d_26">
      <g>
       <use style="stroke:#000000;stroke-width:0.8;" x="36" xlink:href="#m5d49ac537e" y="71.52"/>
      </g>
     </g>
     <g id="text_14">
      <!-- 2 -->
      <g transform="translate(22.6375 75.319219)scale(0.1 -0.1)">
       <use xlink:href="#DejaVuSans-32"/>
      </g>
     </g>
    </g>
    <g id="ytick_7">
     <g id="line2d_27">
      <path clip-path="url(#p5cb7d8256c)" d="M 36 34.56 
L 259.2 34.56 
" style="fill:none;stroke:#b0b0b0;stroke-linecap:square;stroke-width:0.8;"/>
     </g>
     <g id="line2d_28">
      <g>
       <use style="stroke:#000000;stroke-width:0.8;" x="36" xlink:href="#m5d49ac537e" y="34.56"/>
      </g>
     </g>
     <g id="text_15">
      <!-- 3 -->
      <g transform="translate(22.6375 38.359219)scale(0.1 -0.1)">
       <use xlink:href="#DejaVuSans-33"/>
      </g>
     </g>
    </g>
    <g id="text_16">
     <!-- $x_2$ -->
     <g transform="translate(8.178125 150.79)rotate(-90)scale(0.1 -0.1)">
      <use transform="translate(0 0.3125)" xlink:href="#DejaVuSans-Oblique-78"/>
      <use transform="translate(59.179688 -16.09375)scale(0.7)" xlink:href="#DejaVuSans-32"/>
     </g>
    </g>
   </g>
   <g id="patch_13">
    <path clip-path="url(#p5cb7d8256c)" d="M 73.2 182.4 
L 222 182.4 
L 222 108.48 
L 73.2 108.48 
z
" style="fill:none;stroke:#000000;stroke-linejoin:miter;stroke-width:0.8;"/>
   </g>
   <g id="patch_14">
    <path clip-path="url(#p5cb7d8256c)" d="M 58.32 152.832 
L 58.32 226.752 
L 207.12 226.752 
L 211.584 224.5344 
L 236.88 138.048 
L 236.88 64.128 
L 88.08 64.128 
L 83.616 66.3456 
z
" style="fill:none;stroke:#000000;stroke-linejoin:miter;stroke-width:0.8;"/>
   </g>
   <g id="patch_15">
    <path clip-path="url(#p5cb7d8256c)" d="M 53.112 162.8112 
L 53.112 236.7312 
L 201.912 236.7312 
L 206.376 234.5136 
L 215.8992 217.21632 
L 216.792 214.5552 
L 242.088 128.0688 
L 242.088 54.1488 
L 93.288 54.1488 
L 88.824 56.3664 
L 79.3008 73.66368 
L 78.408 76.3248 
z
" style="fill:none;stroke:#000000;stroke-linejoin:miter;stroke-width:0.8;"/>
   </g>
   <g id="patch_16">
    <path clip-path="url(#p5cb7d8256c)" d="M 51.624 166.1376 
L 51.624 240.0576 
L 200.424 240.0576 
L 204.888 237.84 
L 214.4112 220.54272 
L 214.72368 219.943968 
L 217.3872 213.88992 
L 218.28 211.2288 
L 243.576 124.7424 
L 243.576 50.8224 
L 94.776 50.8224 
L 90.312 53.04 
L 80.7888 70.33728 
L 80.47632 70.936032 
L 77.8128 76.99008 
L 76.92 79.6512 
z
" style="fill:none;stroke:#000000;stroke-linejoin:miter;stroke-width:0.8;"/>
   </g>
   <g id="patch_17">
    <path clip-path="url(#p5cb7d8256c)" d="M 51.17016 167.102256 
L 51.17016 241.022256 
L 199.97016 241.022256 
L 204.43416 238.804656 
L 213.95736 221.507376 
L 214.26984 220.908624 
L 215.08824 219.178896 
L 215.17752 218.979312 
L 217.84104 212.925264 
L 218.73384 210.264144 
L 244.02984 123.777744 
L 244.02984 49.857744 
L 95.22984 49.857744 
L 90.76584 52.075344 
L 81.24264 69.372624 
L 80.93016 69.971376 
L 80.11176 71.701104 
L 80.02248 71.900688 
L 77.35896 77.954736 
L 76.46616 80.615856 
z
" style="fill:none;stroke:#000000;stroke-linejoin:miter;stroke-width:0.8;"/>
   </g>
   <g id="patch_18">
    <path clip-path="url(#p5cb7d8256c)" d="M 51.034752 167.394979 
L 51.034752 241.314979 
L 199.834752 241.314979 
L 204.298752 239.097379 
L 213.821952 221.800099 
L 214.134432 221.201347 
L 214.952832 219.471619 
L 214.980062 219.41374 
L 215.223648 218.886173 
L 215.312928 218.686589 
L 217.976448 212.632541 
L 218.869248 209.971421 
L 244.165248 123.485021 
L 244.165248 49.565021 
L 95.365248 49.565021 
L 90.901248 51.782621 
L 81.378048 69.079901 
L 81.065568 69.678653 
L 80.247168 71.408381 
L 80.219938 71.46626 
L 79.976352 71.993827 
L 79.887072 72.193411 
L 77.223552 78.247459 
L 76.330752 80.908579 
z
" style="fill:none;stroke:#000000;stroke-linejoin:miter;stroke-width:0.8;"/>
   </g>
   <g id="patch_19">
    <path clip-path="url(#p5cb7d8256c)" d="M 50.994055 167.482464 
L 50.994055 241.402464 
L 199.794055 241.402464 
L 204.258055 239.184864 
L 213.781255 221.887584 
L 214.093735 221.288832 
L 214.912135 219.559104 
L 214.939366 219.501224 
L 215.012635 219.343819 
L 215.020759 219.326256 
L 215.264345 218.798688 
L 215.353625 218.599104 
L 218.017145 212.545056 
L 218.909945 209.883936 
L 244.205945 123.397536 
L 244.205945 49.477536 
L 95.405945 49.477536 
L 90.941945 51.695136 
L 81.418745 68.992416 
L 81.106265 69.591168 
L 80.287865 71.320896 
L 80.260634 71.378776 
L 80.187365 71.536181 
L 80.179241 71.553744 
L 79.935655 72.081312 
L 79.846375 72.280896 
L 77.182855 78.334944 
L 76.290055 80.996064 
z
" style="fill:none;stroke:#000000;stroke-linejoin:miter;stroke-width:0.8;"/>
   </g>
   <g id="patch_20">
    <path clip-path="url(#p5cb7d8256c)" d="M 50.981854 167.508742 
L 50.981854 241.428742 
L 199.781854 241.428742 
L 204.245854 239.211142 
L 213.769054 221.913862 
L 214.081534 221.31511 
L 214.899934 219.585382 
L 214.927164 219.527503 
L 215.000433 219.370097 
L 215.002875 219.364848 
L 215.024836 219.31754 
L 215.032961 219.299977 
L 215.276546 218.77241 
L 215.365826 218.572826 
L 218.029346 212.518778 
L 218.922146 209.857658 
L 244.218146 123.371258 
L 244.218146 49.451258 
L 95.418146 49.451258 
L 90.954146 51.668858 
L 81.430946 68.966138 
L 81.118466 69.56489 
L 80.300066 71.294618 
L 80.272836 71.352497 
L 80.199567 71.509903 
L 80.197125 71.515152 
L 80.175164 71.56246 
L 80.167039 71.580023 
L 79.923454 72.10759 
L 79.834174 72.307174 
L 77.170654 78.361222 
L 76.277854 81.022342 
z
" style="fill:none;stroke:#000000;stroke-linejoin:miter;stroke-width:0.8;"/>
   </g>
   <g id="patch_21">
    <path clip-path="url(#p5cb7d8256c)" d="M 50.978192 167.516622 
L 50.978192 241.436622 
L 199.778192 241.436622 
L 204.242192 239.219022 
L 213.765392 221.921742 
L 214.077872 221.32299 
L 214.896272 219.593262 
L 214.923503 219.535383 
L 214.996772 219.377978 
L 214.999214 219.372729 
L 215.005804 219.358545 
L 215.006536 219.356968 
L 215.028498 219.30966 
L 215.036622 219.292097 
L 215.280208 218.76453 
L 215.369488 218.564946 
L 218.033008 212.510898 
L 218.925808 209.849778 
L 244.221808 123.363378 
L 244.221808 49.443378 
L 95.421808 49.443378 
L 90.957808 51.660978 
L 81.434608 68.958258 
L 81.122128 69.55701 
L 80.303728 71.286738 
L 80.276497 71.344617 
L 80.203228 71.502022 
L 80.200786 71.507271 
L 80.194196 71.521455 
L 80.193464 71.523032 
L 80.171502 71.57034 
L 80.163378 71.587903 
L 79.919792 72.11547 
L 79.830512 72.315054 
L 77.166992 78.369102 
L 76.274192 81.030222 
z
" style="fill:none;stroke:#000000;stroke-linejoin:miter;stroke-width:0.8;"/>
   </g>
   <g id="patch_22">
    <path clip-path="url(#p5cb7d8256c)" d="M 50.977094 167.518987 
L 50.977094 241.438987 
L 199.777094 241.438987 
L 204.241094 239.221387 
L 213.764294 221.924107 
L 214.076774 221.325355 
L 214.895174 219.595627 
L 214.922404 219.537747 
L 214.995674 219.380342 
L 214.998115 219.375093 
L 215.004706 219.360909 
L 215.004925 219.360436 
L 215.006902 219.35618 
L 215.007634 219.354604 
L 215.029596 219.307296 
L 215.03772 219.289732 
L 215.281306 218.762165 
L 215.370586 218.562581 
L 218.034106 212.508533 
L 218.926906 209.847413 
L 244.222906 123.361013 
L 244.222906 49.441013 
L 95.422906 49.441013 
L 90.958906 51.658613 
L 81.435706 68.955893 
L 81.123226 69.554645 
L 80.304826 71.284373 
L 80.277596 71.342253 
L 80.204326 71.499658 
L 80.201885 71.504907 
L 80.195294 71.519091 
L 80.195075 71.519564 
L 80.193098 71.52382 
L 80.192366 71.525396 
L 80.170404 71.572704 
L 80.16228 71.590268 
L 79.918694 72.117835 
L 79.829414 72.317419 
L 77.165894 78.371467 
L 76.273094 81.032587 
z
" style="fill:none;stroke:#000000;stroke-linejoin:miter;stroke-width:0.8;"/>
   </g>
   <g id="patch_23">
    <path clip-path="url(#p5cb7d8256c)" d="M 50.97524 167.51941 
L 50.97524 241.440829 
L 199.778095 241.440829 
L 204.242181 239.223186 
L 213.765564 221.925575 
L 214.07805 221.326811 
L 214.896466 219.59705 
L 214.923696 219.539169 
L 214.996967 219.381761 
L 214.999409 219.376512 
L 215.005999 219.362328 
L 215.006219 219.361855 
L 215.008196 219.357599 
L 215.008928 219.356022 
L 215.03089 219.308713 
L 215.039015 219.29115 
L 215.282605 218.763572 
L 215.371887 218.563985 
L 218.035458 212.50982 
L 218.928275 209.848649 
L 244.22476 123.36059 
L 244.22476 49.439171 
L 95.421905 49.439171 
L 90.957819 51.656814 
L 81.434436 68.954425 
L 81.12195 69.553189 
L 80.303534 71.28295 
L 80.276304 71.340831 
L 80.203033 71.498239 
L 80.200591 71.503488 
L 80.194001 71.517672 
L 80.193781 71.518145 
L 80.191804 71.522401 
L 80.191072 71.523978 
L 80.16911 71.571287 
L 80.160985 71.58885 
L 79.917395 72.116428 
L 79.828113 72.316015 
L 77.164542 78.37018 
L 76.271725 81.031351 
z
" style="fill:none;stroke:#ff0000;stroke-linejoin:miter;"/>
   </g>
   <g id="patch_24">
    <path d="M 36 256.32 
L 36 34.56 
" style="fill:none;stroke:#000000;stroke-linecap:square;stroke-linejoin:miter;stroke-width:0.8;"/>
   </g>
   <g id="patch_25">
    <path d="M 259.2 256.32 
L 259.2 34.56 
" style="fill:none;stroke:#000000;stroke-linecap:square;stroke-linejoin:miter;stroke-width:0.8;"/>
   </g>
   <g id="patch_26">
    <path d="M 36 256.32 
L 259.2 256.32 
" style="fill:none;stroke:#000000;stroke-linecap:square;stroke-linejoin:miter;stroke-width:0.8;"/>
   </g>
   <g id="patch_27">
    <path d="M 36 34.56 
L 259.2 34.56 
" style="fill:none;stroke:#000000;stroke-linecap:square;stroke-linejoin:miter;stroke-width:0.8;"/>
   </g>
   <g id="text_17">
    <!-- Outer $\epsilon$-approximation of a minimal RPI -->
    <defs>
     <path d="M 39.40625 66.21875 
Q 28.65625 66.21875 22.328125 58.203125 
Q 16.015625 50.203125 16.015625 36.375 
Q 16.015625 22.609375 22.328125 14.59375 
Q 28.65625 6.59375 39.40625 6.59375 
Q 50.140625 6.59375 56.421875 14.59375 
Q 62.703125 22.609375 62.703125 36.375 
Q 62.703125 50.203125 56.421875 58.203125 
Q 50.140625 66.21875 39.40625 66.21875 
z
M 39.40625 74.21875 
Q 54.734375 74.21875 63.90625 63.9375 
Q 73.09375 53.65625 73.09375 36.375 
Q 73.09375 19.140625 63.90625 8.859375 
Q 54.734375 -1.421875 39.40625 -1.421875 
Q 24.03125 -1.421875 14.8125 8.828125 
Q 5.609375 19.09375 5.609375 36.375 
Q 5.609375 53.65625 14.8125 63.9375 
Q 24.03125 74.21875 39.40625 74.21875 
z
" id="DejaVuSans-4f"/>
     <path d="M 8.5 21.578125 
L 8.5 54.6875 
L 17.484375 54.6875 
L 17.484375 21.921875 
Q 17.484375 14.15625 20.5 10.265625 
Q 23.53125 6.390625 29.59375 6.390625 
Q 36.859375 6.390625 41.078125 11.03125 
Q 45.3125 15.671875 45.3125 23.6875 
L 45.3125 54.6875 
L 54.296875 54.6875 
L 54.296875 0 
L 45.3125 0 
L 45.3125 8.40625 
Q 42.046875 3.421875 37.71875 1 
Q 33.40625 -1.421875 27.6875 -1.421875 
Q 18.265625 -1.421875 13.375 4.4375 
Q 8.5 10.296875 8.5 21.578125 
z
M 31.109375 56 
z
" id="DejaVuSans-75"/>
     <path d="M 18.3125 70.21875 
L 18.3125 54.6875 
L 36.8125 54.6875 
L 36.8125 47.703125 
L 18.3125 47.703125 
L 18.3125 18.015625 
Q 18.3125 11.328125 20.140625 9.421875 
Q 21.96875 7.515625 27.59375 7.515625 
L 36.8125 7.515625 
L 36.8125 0 
L 27.59375 0 
Q 17.1875 0 13.234375 3.875 
Q 9.28125 7.765625 9.28125 18.015625 
L 9.28125 47.703125 
L 2.6875 47.703125 
L 2.6875 54.6875 
L 9.28125 54.6875 
L 9.28125 70.21875 
z
" id="DejaVuSans-74"/>
     <path d="M 56.203125 29.59375 
L 56.203125 25.203125 
L 14.890625 25.203125 
Q 15.484375 15.921875 20.484375 11.0625 
Q 25.484375 6.203125 34.421875 6.203125 
Q 39.59375 6.203125 44.453125 7.46875 
Q 49.3125 8.734375 54.109375 11.28125 
L 54.109375 2.78125 
Q 49.265625 0.734375 44.1875 -0.34375 
Q 39.109375 -1.421875 33.890625 -1.421875 
Q 20.796875 -1.421875 13.15625 6.1875 
Q 5.515625 13.8125 5.515625 26.8125 
Q 5.515625 40.234375 12.765625 48.109375 
Q 20.015625 56 32.328125 56 
Q 43.359375 56 49.78125 48.890625 
Q 56.203125 41.796875 56.203125 29.59375 
z
M 47.21875 32.234375 
Q 47.125 39.59375 43.09375 43.984375 
Q 39.0625 48.390625 32.421875 48.390625 
Q 24.90625 48.390625 20.390625 44.140625 
Q 15.875 39.890625 15.1875 32.171875 
z
" id="DejaVuSans-65"/>
     <path d="M 41.109375 46.296875 
Q 39.59375 47.171875 37.8125 47.578125 
Q 36.03125 48 33.890625 48 
Q 26.265625 48 22.1875 43.046875 
Q 18.109375 38.09375 18.109375 28.8125 
L 18.109375 0 
L 9.078125 0 
L 9.078125 54.6875 
L 18.109375 54.6875 
L 18.109375 46.1875 
Q 20.953125 51.171875 25.484375 53.578125 
Q 30.03125 56 36.53125 56 
Q 37.453125 56 38.578125 55.875 
Q 39.703125 55.765625 41.0625 55.515625 
z
" id="DejaVuSans-72"/>
     <path id="DejaVuSans-20"/>
     <path d="M 19.734375 29.5 
Q 14.453125 30.671875 12.15625 33.84375 
Q 10.453125 36.078125 10.453125 39.109375 
Q 10.453125 47.40625 18.359375 52.25 
Q 24.609375 56.0625 34.1875 56.0625 
Q 37.890625 56.0625 41.9375 55.46875 
Q 46 54.890625 50.53125 53.71875 
L 48.96875 45.5625 
Q 44.484375 46.96875 40.71875 47.609375 
Q 36.859375 48.25 33.40625 48.25 
Q 27.59375 48.25 23.78125 46 
Q 19.1875 43.3125 19.1875 39.40625 
Q 19.1875 36.8125 21.578125 35.015625 
Q 24.421875 32.859375 30.078125 32.859375 
L 37.640625 32.859375 
L 36.234375 25.4375 
L 29 25.4375 
Q 22.265625 25.4375 18.3125 22.953125 
Q 12.9375 19.578125 12.9375 14.3125 
Q 12.9375 10.984375 15.828125 8.796875 
Q 19.4375 6.0625 26.8125 6.0625 
Q 31.34375 6.0625 35.6875 6.9375 
Q 40.046875 7.859375 43.84375 9.671875 
L 42.1875 1.3125 
Q 37.546875 -0.046875 33.296875 -0.734375 
Q 29.046875 -1.421875 25.140625 -1.421875 
Q 13.53125 -1.421875 8.0625 3.03125 
Q 3.90625 6.453125 3.90625 12.203125 
Q 3.90625 19.96875 9.375 24.75 
Q 13.421875 28.328125 19.734375 29.5 
z
" id="DejaVuSans-Oblique-3b5"/>
     <path d="M 4.890625 31.390625 
L 31.203125 31.390625 
L 31.203125 23.390625 
L 4.890625 23.390625 
z
" id="DejaVuSans-2d"/>
     <path d="M 34.28125 27.484375 
Q 23.390625 27.484375 19.1875 25 
Q 14.984375 22.515625 14.984375 16.5 
Q 14.984375 11.71875 18.140625 8.90625 
Q 21.296875 6.109375 26.703125 6.109375 
Q 34.1875 6.109375 38.703125 11.40625 
Q 43.21875 16.703125 43.21875 25.484375 
L 43.21875 27.484375 
z
M 52.203125 31.203125 
L 52.203125 0 
L 43.21875 0 
L 43.21875 8.296875 
Q 40.140625 3.328125 35.546875 0.953125 
Q 30.953125 -1.421875 24.3125 -1.421875 
Q 15.921875 -1.421875 10.953125 3.296875 
Q 6 8.015625 6 15.921875 
Q 6 25.140625 12.171875 29.828125 
Q 18.359375 34.515625 30.609375 34.515625 
L 43.21875 34.515625 
L 43.21875 35.40625 
Q 43.21875 41.609375 39.140625 45 
Q 35.0625 48.390625 27.6875 48.390625 
Q 23 48.390625 18.546875 47.265625 
Q 14.109375 46.140625 10.015625 43.890625 
L 10.015625 52.203125 
Q 14.9375 54.109375 19.578125 55.046875 
Q 24.21875 56 28.609375 56 
Q 40.484375 56 46.34375 49.84375 
Q 52.203125 43.703125 52.203125 31.203125 
z
" id="DejaVuSans-61"/>
     <path d="M 18.109375 8.203125 
L 18.109375 -20.796875 
L 9.078125 -20.796875 
L 9.078125 54.6875 
L 18.109375 54.6875 
L 18.109375 46.390625 
Q 20.953125 51.265625 25.265625 53.625 
Q 29.59375 56 35.59375 56 
Q 45.5625 56 51.78125 48.09375 
Q 58.015625 40.1875 58.015625 27.296875 
Q 58.015625 14.40625 51.78125 6.484375 
Q 45.5625 -1.421875 35.59375 -1.421875 
Q 29.59375 -1.421875 25.265625 0.953125 
Q 20.953125 3.328125 18.109375 8.203125 
z
M 48.6875 27.296875 
Q 48.6875 37.203125 44.609375 42.84375 
Q 40.53125 48.484375 33.40625 48.484375 
Q 26.265625 48.484375 22.1875 42.84375 
Q 18.109375 37.203125 18.109375 27.296875 
Q 18.109375 17.390625 22.1875 11.75 
Q 26.265625 6.109375 33.40625 6.109375 
Q 40.53125 6.109375 44.609375 11.75 
Q 48.6875 17.390625 48.6875 27.296875 
z
" id="DejaVuSans-70"/>
     <path d="M 30.609375 48.390625 
Q 23.390625 48.390625 19.1875 42.75 
Q 14.984375 37.109375 14.984375 27.296875 
Q 14.984375 17.484375 19.15625 11.84375 
Q 23.34375 6.203125 30.609375 6.203125 
Q 37.796875 6.203125 41.984375 11.859375 
Q 46.1875 17.53125 46.1875 27.296875 
Q 46.1875 37.015625 41.984375 42.703125 
Q 37.796875 48.390625 30.609375 48.390625 
z
M 30.609375 56 
Q 42.328125 56 49.015625 48.375 
Q 55.71875 40.765625 55.71875 27.296875 
Q 55.71875 13.875 49.015625 6.21875 
Q 42.328125 -1.421875 30.609375 -1.421875 
Q 18.84375 -1.421875 12.171875 6.21875 
Q 5.515625 13.875 5.515625 27.296875 
Q 5.515625 40.765625 12.171875 48.375 
Q 18.84375 56 30.609375 56 
z
" id="DejaVuSans-6f"/>
     <path d="M 54.890625 54.6875 
L 35.109375 28.078125 
L 55.90625 0 
L 45.3125 0 
L 29.390625 21.484375 
L 13.484375 0 
L 2.875 0 
L 24.125 28.609375 
L 4.6875 54.6875 
L 15.28125 54.6875 
L 29.78125 35.203125 
L 44.28125 54.6875 
z
" id="DejaVuSans-78"/>
     <path d="M 9.421875 54.6875 
L 18.40625 54.6875 
L 18.40625 0 
L 9.421875 0 
z
M 9.421875 75.984375 
L 18.40625 75.984375 
L 18.40625 64.59375 
L 9.421875 64.59375 
z
" id="DejaVuSans-69"/>
     <path d="M 52 44.1875 
Q 55.375 50.25 60.0625 53.125 
Q 64.75 56 71.09375 56 
Q 79.640625 56 84.28125 50.015625 
Q 88.921875 44.046875 88.921875 33.015625 
L 88.921875 0 
L 79.890625 0 
L 79.890625 32.71875 
Q 79.890625 40.578125 77.09375 44.375 
Q 74.3125 48.1875 68.609375 48.1875 
Q 61.625 48.1875 57.5625 43.546875 
Q 53.515625 38.921875 53.515625 30.90625 
L 53.515625 0 
L 44.484375 0 
L 44.484375 32.71875 
Q 44.484375 40.625 41.703125 44.40625 
Q 38.921875 48.1875 33.109375 48.1875 
Q 26.21875 48.1875 22.15625 43.53125 
Q 18.109375 38.875 18.109375 30.90625 
L 18.109375 0 
L 9.078125 0 
L 9.078125 54.6875 
L 18.109375 54.6875 
L 18.109375 46.1875 
Q 21.1875 51.21875 25.484375 53.609375 
Q 29.78125 56 35.6875 56 
Q 41.65625 56 45.828125 52.96875 
Q 50 49.953125 52 44.1875 
z
" id="DejaVuSans-6d"/>
     <path d="M 54.890625 33.015625 
L 54.890625 0 
L 45.90625 0 
L 45.90625 32.71875 
Q 45.90625 40.484375 42.875 44.328125 
Q 39.84375 48.1875 33.796875 48.1875 
Q 26.515625 48.1875 22.3125 43.546875 
Q 18.109375 38.921875 18.109375 30.90625 
L 18.109375 0 
L 9.078125 0 
L 9.078125 54.6875 
L 18.109375 54.6875 
L 18.109375 46.1875 
Q 21.34375 51.125 25.703125 53.5625 
Q 30.078125 56 35.796875 56 
Q 45.21875 56 50.046875 50.171875 
Q 54.890625 44.34375 54.890625 33.015625 
z
" id="DejaVuSans-6e"/>
     <path d="M 37.109375 75.984375 
L 37.109375 68.5 
L 28.515625 68.5 
Q 23.6875 68.5 21.796875 66.546875 
Q 19.921875 64.59375 19.921875 59.515625 
L 19.921875 54.6875 
L 34.71875 54.6875 
L 34.71875 47.703125 
L 19.921875 47.703125 
L 19.921875 0 
L 10.890625 0 
L 10.890625 47.703125 
L 2.296875 47.703125 
L 2.296875 54.6875 
L 10.890625 54.6875 
L 10.890625 58.5 
Q 10.890625 67.625 15.140625 71.796875 
Q 19.390625 75.984375 28.609375 75.984375 
z
" id="DejaVuSans-66"/>
     <path d="M 9.421875 75.984375 
L 18.40625 75.984375 
L 18.40625 0 
L 9.421875 0 
z
" id="DejaVuSans-6c"/>
     <path d="M 44.390625 34.1875 
Q 47.5625 33.109375 50.5625 29.59375 
Q 53.5625 26.078125 56.59375 19.921875 
L 66.609375 0 
L 56 0 
L 46.6875 18.703125 
Q 43.0625 26.03125 39.671875 28.421875 
Q 36.28125 30.8125 30.421875 30.8125 
L 19.671875 30.8125 
L 19.671875 0 
L 9.8125 0 
L 9.8125 72.90625 
L 32.078125 72.90625 
Q 44.578125 72.90625 50.734375 67.671875 
Q 56.890625 62.453125 56.890625 51.90625 
Q 56.890625 45.015625 53.6875 40.46875 
Q 50.484375 35.9375 44.390625 34.1875 
z
M 19.671875 64.796875 
L 19.671875 38.921875 
L 32.078125 38.921875 
Q 39.203125 38.921875 42.84375 42.21875 
Q 46.484375 45.515625 46.484375 51.90625 
Q 46.484375 58.296875 42.84375 61.546875 
Q 39.203125 64.796875 32.078125 64.796875 
z
" id="DejaVuSans-52"/>
     <path d="M 19.671875 64.796875 
L 19.671875 37.40625 
L 32.078125 37.40625 
Q 38.96875 37.40625 42.71875 40.96875 
Q 46.484375 44.53125 46.484375 51.125 
Q 46.484375 57.671875 42.71875 61.234375 
Q 38.96875 64.796875 32.078125 64.796875 
z
M 9.8125 72.90625 
L 32.078125 72.90625 
Q 44.34375 72.90625 50.609375 67.359375 
Q 56.890625 61.8125 56.890625 51.125 
Q 56.890625 40.328125 50.609375 34.8125 
Q 44.34375 29.296875 32.078125 29.296875 
L 19.671875 29.296875 
L 19.671875 0 
L 9.8125 0 
z
" id="DejaVuSans-50"/>
     <path d="M 9.8125 72.90625 
L 19.671875 72.90625 
L 19.671875 0 
L 9.8125 0 
z
" id="DejaVuSans-49"/>
    </defs>
    <g transform="translate(28.74 28.56)scale(0.12 -0.12)">
     <use transform="translate(0 0.015625)" xlink:href="#DejaVuSans-4f"/>
     <use transform="translate(78.710938 0.015625)" xlink:href="#DejaVuSans-75"/>
     <use transform="translate(142.089844 0.015625)" xlink:href="#DejaVuSans-74"/>
     <use transform="translate(181.298828 0.015625)" xlink:href="#DejaVuSans-65"/>
     <use transform="translate(242.822266 0.015625)" xlink:href="#DejaVuSans-72"/>
     <use transform="translate(283.935547 0.015625)" xlink:href="#DejaVuSans-20"/>
     <use transform="translate(315.722656 0.015625)" xlink:href="#DejaVuSans-Oblique-3b5"/>
     <use transform="translate(369.775391 0.015625)" xlink:href="#DejaVuSans-2d"/>
     <use transform="translate(405.859375 0.015625)" xlink:href="#DejaVuSans-61"/>
     <use transform="translate(467.138672 0.015625)" xlink:href="#DejaVuSans-70"/>
     <use transform="translate(530.615234 0.015625)" xlink:href="#DejaVuSans-70"/>
     <use transform="translate(594.091797 0.015625)" xlink:href="#DejaVuSans-72"/>
     <use transform="translate(635.205078 0.015625)" xlink:href="#DejaVuSans-6f"/>
     <use transform="translate(696.386719 0.015625)" xlink:href="#DejaVuSans-78"/>
     <use transform="translate(755.566406 0.015625)" xlink:href="#DejaVuSans-69"/>
     <use transform="translate(783.349609 0.015625)" xlink:href="#DejaVuSans-6d"/>
     <use transform="translate(880.761719 0.015625)" xlink:href="#DejaVuSans-61"/>
     <use transform="translate(942.041016 0.015625)" xlink:href="#DejaVuSans-74"/>
     <use transform="translate(981.25 0.015625)" xlink:href="#DejaVuSans-69"/>
     <use transform="translate(1009.033203 0.015625)" xlink:href="#DejaVuSans-6f"/>
     <use transform="translate(1070.214844 0.015625)" xlink:href="#DejaVuSans-6e"/>
     <use transform="translate(1133.59375 0.015625)" xlink:href="#DejaVuSans-20"/>
     <use transform="translate(1165.380859 0.015625)" xlink:href="#DejaVuSans-6f"/>
     <use transform="translate(1226.5625 0.015625)" xlink:href="#DejaVuSans-66"/>
     <use transform="translate(1261.767578 0.015625)" xlink:href="#DejaVuSans-20"/>
     <use transform="translate(1293.554688 0.015625)" xlink:href="#DejaVuSans-61"/>
     <use transform="translate(1354.833984 0.015625)" xlink:href="#DejaVuSans-20"/>
     <use transform="translate(1386.621094 0.015625)" xlink:href="#DejaVuSans-6d"/>
     <use transform="translate(1484.033203 0.015625)" xlink:href="#DejaVuSans-69"/>
     <use transform="translate(1511.816406 0.015625)" xlink:href="#DejaVuSans-6e"/>
     <use transform="translate(1575.195312 0.015625)" xlink:href="#DejaVuSans-69"/>
     <use transform="translate(1602.978516 0.015625)" xlink:href="#DejaVuSans-6d"/>
     <use transform="translate(1700.390625 0.015625)" xlink:href="#DejaVuSans-61"/>
     <use transform="translate(1761.669922 0.015625)" xlink:href="#DejaVuSans-6c"/>
     <use transform="translate(1789.453125 0.015625)" xlink:href="#DejaVuSans-20"/>
     <use transform="translate(1821.240234 0.015625)" xlink:href="#DejaVuSans-52"/>
     <use transform="translate(1890.722656 0.015625)" xlink:href="#DejaVuSans-50"/>
     <use transform="translate(1951.025391 0.015625)" xlink:href="#DejaVuSans-49"/>
    </g>
   </g>
   <g id="legend_1">
    <g id="patch_28">
     <path d="M 42.9104 223.056 
L 159.6104 223.056 
Q 161.6104 223.056 161.6104 221.056 
L 161.6104 189.656 
Q 161.6104 187.656 159.6104 187.656 
L 42.9104 187.656 
Q 40.9104 187.656 40.9104 189.656 
L 40.9104 221.056 
Q 40.9104 223.056 42.9104 223.056 
z
" style="fill:#ffffff;opacity:0.8;stroke:#cccccc;stroke-linejoin:miter;"/>
    </g>
    <g id="patch_29">
     <path d="M 44.9104 200.756 
L 64.9104 200.756 
L 64.9104 193.756 
L 44.9104 193.756 
z
" style="fill:none;stroke:#000000;stroke-linejoin:miter;stroke-width:0.8;"/>
    </g>
    <g id="patch_30">
     <path d="M 44.9104 200.756 
L 64.9104 200.756 
L 64.9104 193.756 
L 44.9104 193.756 
z
" style="fill:#d3d3d3;"/>
    </g>
    <g id="text_18">
     <!-- $\{F_s\}_{s=1}^{10}$ -->
     <defs>
      <path d="M 51.125 -9.28125 
L 51.125 -16.3125 
L 48.09375 -16.3125 
Q 35.9375 -16.3125 31.8125 -12.6875 
Q 27.6875 -9.078125 27.6875 1.703125 
L 27.6875 13.375 
Q 27.6875 20.75 25.046875 23.578125 
Q 22.40625 26.421875 15.484375 26.421875 
L 12.5 26.421875 
L 12.5 33.40625 
L 15.484375 33.40625 
Q 22.46875 33.40625 25.078125 36.203125 
Q 27.6875 39.015625 27.6875 46.296875 
L 27.6875 58.015625 
Q 27.6875 68.796875 31.8125 72.390625 
Q 35.9375 75.984375 48.09375 75.984375 
L 51.125 75.984375 
L 51.125 69 
L 47.796875 69 
Q 40.921875 69 38.8125 66.84375 
Q 36.71875 64.703125 36.71875 57.8125 
L 36.71875 45.703125 
Q 36.71875 38.03125 34.5 34.5625 
Q 32.28125 31.109375 26.90625 29.890625 
Q 32.328125 28.5625 34.515625 25.09375 
Q 36.71875 21.625 36.71875 14.015625 
L 36.71875 1.90625 
Q 36.71875 -4.984375 38.8125 -7.125 
Q 40.921875 -9.28125 47.796875 -9.28125 
z
" id="DejaVuSans-7b"/>
      <path d="M 16.890625 72.90625 
L 58.6875 72.90625 
L 57.078125 64.59375 
L 25.09375 64.59375 
L 20.90625 43.109375 
L 49.8125 43.109375 
L 48.1875 34.8125 
L 19.28125 34.8125 
L 12.5 0 
L 2.6875 0 
z
" id="DejaVuSans-Oblique-46"/>
      <path d="M 50 53.078125 
L 48.296875 44.578125 
Q 44.734375 46.53125 40.765625 47.5 
Q 36.8125 48.484375 32.625 48.484375 
Q 25.53125 48.484375 21.453125 46.0625 
Q 17.390625 43.65625 17.390625 39.5 
Q 17.390625 34.671875 26.859375 32.078125 
Q 27.59375 31.890625 27.9375 31.78125 
L 30.8125 30.90625 
Q 39.796875 28.421875 42.796875 25.6875 
Q 45.796875 22.953125 45.796875 18.21875 
Q 45.796875 9.515625 38.890625 4.046875 
Q 31.984375 -1.421875 20.796875 -1.421875 
Q 16.453125 -1.421875 11.671875 -0.578125 
Q 6.890625 0.25 1.125 2 
L 2.875 11.28125 
Q 7.8125 8.734375 12.59375 7.421875 
Q 17.390625 6.109375 21.78125 6.109375 
Q 28.375 6.109375 32.5 8.9375 
Q 36.625 11.765625 36.625 16.109375 
Q 36.625 20.796875 25.78125 23.6875 
L 24.859375 23.921875 
L 21.78125 24.703125 
Q 14.9375 26.515625 11.765625 29.46875 
Q 8.59375 32.421875 8.59375 37.015625 
Q 8.59375 45.75 15.15625 50.875 
Q 21.734375 56 33.015625 56 
Q 37.453125 56 41.671875 55.265625 
Q 45.90625 54.546875 50 53.078125 
z
" id="DejaVuSans-Oblique-73"/>
      <path d="M 12.5 -9.28125 
L 15.921875 -9.28125 
Q 22.75 -9.28125 24.828125 -7.171875 
Q 26.90625 -5.078125 26.90625 1.90625 
L 26.90625 14.015625 
Q 26.90625 21.625 29.09375 25.09375 
Q 31.296875 28.5625 36.71875 29.890625 
Q 31.296875 31.109375 29.09375 34.5625 
Q 26.90625 38.03125 26.90625 45.703125 
L 26.90625 57.8125 
Q 26.90625 64.75 24.828125 66.875 
Q 22.75 69 15.921875 69 
L 12.5 69 
L 12.5 75.984375 
L 15.578125 75.984375 
Q 27.734375 75.984375 31.8125 72.390625 
Q 35.890625 68.796875 35.890625 58.015625 
L 35.890625 46.296875 
Q 35.890625 39.015625 38.515625 36.203125 
Q 41.15625 33.40625 48.09375 33.40625 
L 51.125 33.40625 
L 51.125 26.421875 
L 48.09375 26.421875 
Q 41.15625 26.421875 38.515625 23.578125 
Q 35.890625 20.75 35.890625 13.375 
L 35.890625 1.703125 
Q 35.890625 -9.078125 31.8125 -12.6875 
Q 27.734375 -16.3125 15.578125 -16.3125 
L 12.5 -16.3125 
z
" id="DejaVuSans-7d"/>
      <path d="M 10.59375 45.40625 
L 73.1875 45.40625 
L 73.1875 37.203125 
L 10.59375 37.203125 
z
M 10.59375 25.484375 
L 73.1875 25.484375 
L 73.1875 17.1875 
L 10.59375 17.1875 
z
" id="DejaVuSans-3d"/>
     </defs>
     <g transform="translate(72.9104 200.756)scale(0.1 -0.1)">
      <use transform="translate(0 0.765625)" xlink:href="#DejaVuSans-7b"/>
      <use transform="translate(63.623047 0.765625)" xlink:href="#DejaVuSans-Oblique-46"/>
      <use transform="translate(121.142578 -15.640625)scale(0.7)" xlink:href="#DejaVuSans-Oblique-73"/>
      <use transform="translate(160.34668 0.765625)" xlink:href="#DejaVuSans-7d"/>
      <use transform="translate(224.926758 39.046875)scale(0.7)" xlink:href="#DejaVuSans-31"/>
      <use transform="translate(269.462891 39.046875)scale(0.7)" xlink:href="#DejaVuSans-30"/>
      <use transform="translate(224.926758 -26.578125)scale(0.7)" xlink:href="#DejaVuSans-Oblique-73"/>
      <use transform="translate(275.03418 -26.578125)scale(0.7)" xlink:href="#DejaVuSans-3d"/>
      <use transform="translate(347.324219 -26.578125)scale(0.7)" xlink:href="#DejaVuSans-31"/>
     </g>
    </g>
    <g id="patch_31">
     <path d="M 44.9104 216.976313 
L 64.9104 216.976313 
L 64.9104 209.976313 
L 44.9104 209.976313 
z
" style="fill:none;stroke:#ff0000;stroke-linejoin:miter;"/>
    </g>
    <g id="text_19">
     <!-- $F(1.9 \times 10^{-5},\, 10)$ -->
     <defs>
      <path d="M 31 75.875 
Q 24.46875 64.65625 21.28125 53.65625 
Q 18.109375 42.671875 18.109375 31.390625 
Q 18.109375 20.125 21.3125 9.0625 
Q 24.515625 -2 31 -13.1875 
L 23.1875 -13.1875 
Q 15.875 -1.703125 12.234375 9.375 
Q 8.59375 20.453125 8.59375 31.390625 
Q 8.59375 42.28125 12.203125 53.3125 
Q 15.828125 64.359375 23.1875 75.875 
z
" id="DejaVuSans-28"/>
      <path d="M 10.984375 1.515625 
L 10.984375 10.5 
Q 14.703125 8.734375 18.5 7.8125 
Q 22.3125 6.890625 25.984375 6.890625 
Q 35.75 6.890625 40.890625 13.453125 
Q 46.046875 20.015625 46.78125 33.40625 
Q 43.953125 29.203125 39.59375 26.953125 
Q 35.25 24.703125 29.984375 24.703125 
Q 19.046875 24.703125 12.671875 31.3125 
Q 6.296875 37.9375 6.296875 49.421875 
Q 6.296875 60.640625 12.9375 67.421875 
Q 19.578125 74.21875 30.609375 74.21875 
Q 43.265625 74.21875 49.921875 64.515625 
Q 56.59375 54.828125 56.59375 36.375 
Q 56.59375 19.140625 48.40625 8.859375 
Q 40.234375 -1.421875 26.421875 -1.421875 
Q 22.703125 -1.421875 18.890625 -0.6875 
Q 15.09375 0.046875 10.984375 1.515625 
z
M 30.609375 32.421875 
Q 37.25 32.421875 41.125 36.953125 
Q 45.015625 41.5 45.015625 49.421875 
Q 45.015625 57.28125 41.125 61.84375 
Q 37.25 66.40625 30.609375 66.40625 
Q 23.96875 66.40625 20.09375 61.84375 
Q 16.21875 57.28125 16.21875 49.421875 
Q 16.21875 41.5 20.09375 36.953125 
Q 23.96875 32.421875 30.609375 32.421875 
z
" id="DejaVuSans-39"/>
      <path d="M 70.125 53.71875 
L 47.796875 31.296875 
L 70.125 8.984375 
L 64.3125 3.078125 
L 41.890625 25.484375 
L 19.484375 3.078125 
L 13.71875 8.984375 
L 35.984375 31.296875 
L 13.71875 53.71875 
L 19.484375 59.625 
L 41.890625 37.203125 
L 64.3125 59.625 
z
" id="DejaVuSans-d7"/>
      <path d="M 11.71875 12.40625 
L 22.015625 12.40625 
L 22.015625 4 
L 14.015625 -11.625 
L 7.71875 -11.625 
L 11.71875 4 
z
" id="DejaVuSans-2c"/>
      <path d="M 8.015625 75.875 
L 15.828125 75.875 
Q 23.140625 64.359375 26.78125 53.3125 
Q 30.421875 42.28125 30.421875 31.390625 
Q 30.421875 20.453125 26.78125 9.375 
Q 23.140625 -1.703125 15.828125 -13.1875 
L 8.015625 -13.1875 
Q 14.5 -2 17.703125 9.0625 
Q 20.90625 20.125 20.90625 31.390625 
Q 20.90625 42.671875 17.703125 53.65625 
Q 14.5 64.65625 8.015625 75.875 
z
" id="DejaVuSans-29"/>
     </defs>
     <g transform="translate(72.9104 216.976313)scale(0.1 -0.1)">
      <use transform="translate(0 0.684375)" xlink:href="#DejaVuSans-Oblique-46"/>
      <use transform="translate(57.519531 0.684375)" xlink:href="#DejaVuSans-28"/>
      <use transform="translate(96.533203 0.684375)" xlink:href="#DejaVuSans-31"/>
      <use transform="translate(160.15625 0.684375)" xlink:href="#DejaVuSans-2e"/>
      <use transform="translate(191.943359 0.684375)" xlink:href="#DejaVuSans-39"/>
      <use transform="translate(275.048828 0.684375)" xlink:href="#DejaVuSans-d7"/>
      <use transform="translate(378.320312 0.684375)" xlink:href="#DejaVuSans-31"/>
      <use transform="translate(441.943359 0.684375)" xlink:href="#DejaVuSans-30"/>
      <use transform="translate(506.523438 38.965625)scale(0.7)" xlink:href="#DejaVuSans-2212"/>
      <use transform="translate(565.175781 38.965625)scale(0.7)" xlink:href="#DejaVuSans-35"/>
      <use transform="translate(612.446289 0.684375)" xlink:href="#DejaVuSans-2c"/>
      <use transform="translate(679.951497 0.684375)" xlink:href="#DejaVuSans-31"/>
      <use transform="translate(743.574543 0.684375)" xlink:href="#DejaVuSans-30"/>
      <use transform="translate(807.19759 0.684375)" xlink:href="#DejaVuSans-29"/>
     </g>
    </g>
   </g>
  </g>
 </g>
 <defs>
  <clipPath id="p5cb7d8256c">
   <rect height="221.76" width="223.2" x="36" y="34.56"/>
  </clipPath>
 </defs>
</svg>
