<?xml version="1.0" encoding="utf-8" standalone="no"?>
<!DOCTYPE svg PUBLIC "-//W3C//DTD SVG 1.1//EN"
  "http://www.w3.org/Graphics/SVG/1.1/DTD/svg11.dtd">
<!-- Created with matplotlib (http://matplotlib.org/) -->
<svg height="288pt" version="1.1" viewBox="0 0 288 288" width="288pt" xmlns="http://www.w3.org/2000/svg" xmlns:xlink="http://www.w3.org/1999/xlink">
 <defs>
  <style type="text/css">
*{stroke-linecap:butt;stroke-linejoin:round;}
  </style>
 </defs>
 <g id="figure_1">
  <g id="patch_1">
   <path d="M 0 288 
L 288 288 
L 288 0 
L 0 0 
z
" style="fill:#ffffff;"/>
  </g>
  <g id="axes_1">
   <g id="patch_2">
    <path d="M 36 256.32 
L 259.2 256.32 
L 259.2 34.56 
L 36 34.56 
z
" style="fill:#ffffff;"/>
   </g>
   <g id="patch_3">
    <path clip-path="url(#p6449088fc1)" d="M 91.8 200.88 
L 129 163.92 
L 91.8 126.96 
L 54.6 163.92 
z
" style="fill:#008000;"/>
   </g>
   <g id="patch_4">
    <path clip-path="url(#p6449088fc1)" d="M 166.2 182.4 
L 166.2 126.96 
L 110.4 126.96 
z
" style="fill:#0000ff;opacity:0.5;"/>
   </g>
   <g id="patch_5">
    <path clip-path="url(#p6449088fc1)" d="M 218.28 156.528 
L 218.28 101.088 
L 162.48 101.088 
z
" style="fill:#ffa07a;"/>
   </g>
   <g id="patch_6">
    <path clip-path="url(#p6449088fc1)" d="M 76.92 230.448 
L 84.36 223.056 
L 76.92 215.664 
L 69.48 223.056 
z
" style="fill:#008000;"/>
   </g>
   <g id="patch_7">
    <path clip-path="url(#p6449088fc1)" d="M 56.843435 176.561064 
L 104.523149 198.651039 
L 126.756565 151.278936 
L 79.076851 129.188961 
z
" style="fill:#008000;opacity:0.3;"/>
   </g>
   <g id="patch_8">
    <path clip-path="url(#p6449088fc1)" d="M 106.68 112.176 
L 114.12 104.784 
L 106.68 97.392 
L 99.24 104.784 
z
" style="fill:#008000;opacity:0.3;"/>
   </g>
   <g id="patch_9">
    <path clip-path="url(#p6449088fc1)" d="M 129.004255 78.825788 
L 132.163645 88.556535 
L 147.286522 88.02772 
L 162.799753 79.148021 
L 164.633491 70.294211 
L 165.785633 62.347797 
L 161.601676 56.935338 
L 158.787698 54.213052 
L 135.317692 57.543853 
L 129.680324 62.274666 
z
" style="fill:#808080;opacity:0.6;"/>
   </g>
   <g id="PathCollection_1">
    <defs>
     <path d="M -3 3 
L 3 -3 
M -3 -3 
L 3 3 
" id="m2f200b5ba7" style="stroke:#000000;stroke-width:1.5;"/>
    </defs>
    <g clip-path="url(#p6449088fc1)">
     <use style="stroke:#000000;stroke-width:1.5;" x="162.48" xlink:href="#m2f200b5ba7" y="101.088"/>
     <use style="stroke:#000000;stroke-width:1.5;" x="218.28" xlink:href="#m2f200b5ba7" y="101.088"/>
     <use style="stroke:#000000;stroke-width:1.5;" x="218.28" xlink:href="#m2f200b5ba7" y="156.528"/>
    </g>
   </g>
   <g id="matplotlib.axis_1">
    <g id="xtick_1">
     <g id="line2d_1">
      <path clip-path="url(#p6449088fc1)" d="M 54.6 256.32 
L 54.6 34.56 
" style="fill:none;stroke:#b0b0b0;stroke-linecap:square;stroke-width:0.8;"/>
     </g>
     <g id="line2d_2">
      <defs>
       <path d="M 0 0 
L 0 3.5 
" id="m9db0555182" style="stroke:#000000;stroke-width:0.8;"/>
      </defs>
      <g>
       <use style="stroke:#000000;stroke-width:0.8;" x="54.6" xlink:href="#m9db0555182" y="256.32"/>
      </g>
     </g>
     <g id="text_1">
      <!-- −1 -->
      <defs>
       <path d="M 10.59375 35.5 
L 73.1875 35.5 
L 73.1875 27.203125 
L 10.59375 27.203125 
z
" id="DejaVuSans-2212"/>
       <path d="M 12.40625 8.296875 
L 28.515625 8.296875 
L 28.515625 63.921875 
L 10.984375 60.40625 
L 10.984375 69.390625 
L 28.421875 72.90625 
L 38.28125 72.90625 
L 38.28125 8.296875 
L 54.390625 8.296875 
L 54.390625 0 
L 12.40625 0 
z
" id="DejaVuSans-31"/>
      </defs>
      <g transform="translate(47.228906 270.918437)scale(0.1 -0.1)">
       <use xlink:href="#DejaVuSans-2212"/>
       <use x="83.789062" xlink:href="#DejaVuSans-31"/>
      </g>
     </g>
    </g>
    <g id="xtick_2">
     <g id="line2d_3">
      <path clip-path="url(#p6449088fc1)" d="M 91.8 256.32 
L 91.8 34.56 
" style="fill:none;stroke:#b0b0b0;stroke-linecap:square;stroke-width:0.8;"/>
     </g>
     <g id="line2d_4">
      <g>
       <use style="stroke:#000000;stroke-width:0.8;" x="91.8" xlink:href="#m9db0555182" y="256.32"/>
      </g>
     </g>
     <g id="text_2">
      <!-- 0 -->
      <defs>
       <path d="M 31.78125 66.40625 
Q 24.171875 66.40625 20.328125 58.90625 
Q 16.5 51.421875 16.5 36.375 
Q 16.5 21.390625 20.328125 13.890625 
Q 24.171875 6.390625 31.78125 6.390625 
Q 39.453125 6.390625 43.28125 13.890625 
Q 47.125 21.390625 47.125 36.375 
Q 47.125 51.421875 43.28125 58.90625 
Q 39.453125 66.40625 31.78125 66.40625 
z
M 31.78125 74.21875 
Q 44.046875 74.21875 50.515625 64.515625 
Q 56.984375 54.828125 56.984375 36.375 
Q 56.984375 17.96875 50.515625 8.265625 
Q 44.046875 -1.421875 31.78125 -1.421875 
Q 19.53125 -1.421875 13.0625 8.265625 
Q 6.59375 17.96875 6.59375 36.375 
Q 6.59375 54.828125 13.0625 64.515625 
Q 19.53125 74.21875 31.78125 74.21875 
z
" id="DejaVuSans-30"/>
      </defs>
      <g transform="translate(88.61875 270.918437)scale(0.1 -0.1)">
       <use xlink:href="#DejaVuSans-30"/>
      </g>
     </g>
    </g>
    <g id="xtick_3">
     <g id="line2d_5">
      <path clip-path="url(#p6449088fc1)" d="M 129 256.32 
L 129 34.56 
" style="fill:none;stroke:#b0b0b0;stroke-linecap:square;stroke-width:0.8;"/>
     </g>
     <g id="line2d_6">
      <g>
       <use style="stroke:#000000;stroke-width:0.8;" x="129" xlink:href="#m9db0555182" y="256.32"/>
      </g>
     </g>
     <g id="text_3">
      <!-- 1 -->
      <g transform="translate(125.81875 270.918437)scale(0.1 -0.1)">
       <use xlink:href="#DejaVuSans-31"/>
      </g>
     </g>
    </g>
    <g id="xtick_4">
     <g id="line2d_7">
      <path clip-path="url(#p6449088fc1)" d="M 166.2 256.32 
L 166.2 34.56 
" style="fill:none;stroke:#b0b0b0;stroke-linecap:square;stroke-width:0.8;"/>
     </g>
     <g id="line2d_8">
      <g>
       <use style="stroke:#000000;stroke-width:0.8;" x="166.2" xlink:href="#m9db0555182" y="256.32"/>
      </g>
     </g>
     <g id="text_4">
      <!-- 2 -->
      <defs>
       <path d="M 19.1875 8.296875 
L 53.609375 8.296875 
L 53.609375 0 
L 7.328125 0 
L 7.328125 8.296875 
Q 12.9375 14.109375 22.625 23.890625 
Q 32.328125 33.6875 34.8125 36.53125 
Q 39.546875 41.84375 41.421875 45.53125 
Q 43.3125 49.21875 43.3125 52.78125 
Q 43.3125 58.59375 39.234375 62.25 
Q 35.15625 65.921875 28.609375 65.921875 
Q 23.96875 65.921875 18.8125 64.3125 
Q 13.671875 62.703125 7.8125 59.421875 
L 7.8125 69.390625 
Q 13.765625 71.78125 18.9375 73 
Q 24.125 74.21875 28.421875 74.21875 
Q 39.75 74.21875 46.484375 68.546875 
Q 53.21875 62.890625 53.21875 53.421875 
Q 53.21875 48.921875 51.53125 44.890625 
Q 49.859375 40.875 45.40625 35.40625 
Q 44.1875 33.984375 37.640625 27.21875 
Q 31.109375 20.453125 19.1875 8.296875 
z
" id="DejaVuSans-32"/>
      </defs>
      <g transform="translate(163.01875 270.918437)scale(0.1 -0.1)">
       <use xlink:href="#DejaVuSans-32"/>
      </g>
     </g>
    </g>
    <g id="xtick_5">
     <g id="line2d_9">
      <path clip-path="url(#p6449088fc1)" d="M 203.4 256.32 
L 203.4 34.56 
" style="fill:none;stroke:#b0b0b0;stroke-linecap:square;stroke-width:0.8;"/>
     </g>
     <g id="line2d_10">
      <g>
       <use style="stroke:#000000;stroke-width:0.8;" x="203.4" xlink:href="#m9db0555182" y="256.32"/>
      </g>
     </g>
     <g id="text_5">
      <!-- 3 -->
      <defs>
       <path d="M 40.578125 39.3125 
Q 47.65625 37.796875 51.625 33 
Q 55.609375 28.21875 55.609375 21.1875 
Q 55.609375 10.40625 48.1875 4.484375 
Q 40.765625 -1.421875 27.09375 -1.421875 
Q 22.515625 -1.421875 17.65625 -0.515625 
Q 12.796875 0.390625 7.625 2.203125 
L 7.625 11.71875 
Q 11.71875 9.328125 16.59375 8.109375 
Q 21.484375 6.890625 26.8125 6.890625 
Q 36.078125 6.890625 40.9375 10.546875 
Q 45.796875 14.203125 45.796875 21.1875 
Q 45.796875 27.640625 41.28125 31.265625 
Q 36.765625 34.90625 28.71875 34.90625 
L 20.21875 34.90625 
L 20.21875 43.015625 
L 29.109375 43.015625 
Q 36.375 43.015625 40.234375 45.921875 
Q 44.09375 48.828125 44.09375 54.296875 
Q 44.09375 59.90625 40.109375 62.90625 
Q 36.140625 65.921875 28.71875 65.921875 
Q 24.65625 65.921875 20.015625 65.03125 
Q 15.375 64.15625 9.8125 62.3125 
L 9.8125 71.09375 
Q 15.4375 72.65625 20.34375 73.4375 
Q 25.25 74.21875 29.59375 74.21875 
Q 40.828125 74.21875 47.359375 69.109375 
Q 53.90625 64.015625 53.90625 55.328125 
Q 53.90625 49.265625 50.4375 45.09375 
Q 46.96875 40.921875 40.578125 39.3125 
z
" id="DejaVuSans-33"/>
      </defs>
      <g transform="translate(200.21875 270.918437)scale(0.1 -0.1)">
       <use xlink:href="#DejaVuSans-33"/>
      </g>
     </g>
    </g>
    <g id="xtick_6">
     <g id="line2d_11">
      <path clip-path="url(#p6449088fc1)" d="M 240.6 256.32 
L 240.6 34.56 
" style="fill:none;stroke:#b0b0b0;stroke-linecap:square;stroke-width:0.8;"/>
     </g>
     <g id="line2d_12">
      <g>
       <use style="stroke:#000000;stroke-width:0.8;" x="240.6" xlink:href="#m9db0555182" y="256.32"/>
      </g>
     </g>
     <g id="text_6">
      <!-- 4 -->
      <defs>
       <path d="M 37.796875 64.3125 
L 12.890625 25.390625 
L 37.796875 25.390625 
z
M 35.203125 72.90625 
L 47.609375 72.90625 
L 47.609375 25.390625 
L 58.015625 25.390625 
L 58.015625 17.1875 
L 47.609375 17.1875 
L 47.609375 0 
L 37.796875 0 
L 37.796875 17.1875 
L 4.890625 17.1875 
L 4.890625 26.703125 
z
" id="DejaVuSans-34"/>
      </defs>
      <g transform="translate(237.41875 270.918437)scale(0.1 -0.1)">
       <use xlink:href="#DejaVuSans-34"/>
      </g>
     </g>
    </g>
    <g id="text_7">
     <!-- $x_1$ -->
     <defs>
      <path d="M 60.015625 54.6875 
L 34.90625 27.875 
L 50.296875 0 
L 39.984375 0 
L 28.421875 21.6875 
L 8.296875 0 
L -2.59375 0 
L 24.3125 28.8125 
L 10.015625 54.6875 
L 20.3125 54.6875 
L 30.8125 34.90625 
L 49.125 54.6875 
z
" id="DejaVuSans-Oblique-78"/>
     </defs>
     <g transform="translate(142.25 284.596563)scale(0.1 -0.1)">
      <use transform="translate(0 0.3125)" xlink:href="#DejaVuSans-Oblique-78"/>
      <use transform="translate(59.179688 -16.09375)scale(0.7)" xlink:href="#DejaVuSans-31"/>
     </g>
    </g>
   </g>
   <g id="matplotlib.axis_2">
    <g id="ytick_1">
     <g id="line2d_13">
      <path clip-path="url(#p6449088fc1)" d="M 36 237.84 
L 259.2 237.84 
" style="fill:none;stroke:#b0b0b0;stroke-linecap:square;stroke-width:0.8;"/>
     </g>
     <g id="line2d_14">
      <defs>
       <path d="M 0 0 
L -3.5 0 
" id="m5164f4861b" style="stroke:#000000;stroke-width:0.8;"/>
      </defs>
      <g>
       <use style="stroke:#000000;stroke-width:0.8;" x="36" xlink:href="#m5164f4861b" y="237.84"/>
      </g>
     </g>
     <g id="text_8">
      <!-- −2 -->
      <g transform="translate(14.257812 241.639219)scale(0.1 -0.1)">
       <use xlink:href="#DejaVuSans-2212"/>
       <use x="83.789062" xlink:href="#DejaVuSans-32"/>
      </g>
     </g>
    </g>
    <g id="ytick_2">
     <g id="line2d_15">
      <path clip-path="url(#p6449088fc1)" d="M 36 200.88 
L 259.2 200.88 
" style="fill:none;stroke:#b0b0b0;stroke-linecap:square;stroke-width:0.8;"/>
     </g>
     <g id="line2d_16">
      <g>
       <use style="stroke:#000000;stroke-width:0.8;" x="36" xlink:href="#m5164f4861b" y="200.88"/>
      </g>
     </g>
     <g id="text_9">
      <!-- −1 -->
      <g transform="translate(14.257812 204.679219)scale(0.1 -0.1)">
       <use xlink:href="#DejaVuSans-2212"/>
       <use x="83.789062" xlink:href="#DejaVuSans-31"/>
      </g>
     </g>
    </g>
    <g id="ytick_3">
     <g id="line2d_17">
      <path clip-path="url(#p6449088fc1)" d="M 36 163.92 
L 259.2 163.92 
" style="fill:none;stroke:#b0b0b0;stroke-linecap:square;stroke-width:0.8;"/>
     </g>
     <g id="line2d_18">
      <g>
       <use style="stroke:#000000;stroke-width:0.8;" x="36" xlink:href="#m5164f4861b" y="163.92"/>
      </g>
     </g>
     <g id="text_10">
      <!-- 0 -->
      <g transform="translate(22.6375 167.719219)scale(0.1 -0.1)">
       <use xlink:href="#DejaVuSans-30"/>
      </g>
     </g>
    </g>
    <g id="ytick_4">
     <g id="line2d_19">
      <path clip-path="url(#p6449088fc1)" d="M 36 126.96 
L 259.2 126.96 
" style="fill:none;stroke:#b0b0b0;stroke-linecap:square;stroke-width:0.8;"/>
     </g>
     <g id="line2d_20">
      <g>
       <use style="stroke:#000000;stroke-width:0.8;" x="36" xlink:href="#m5164f4861b" y="126.96"/>
      </g>
     </g>
     <g id="text_11">
      <!-- 1 -->
      <g transform="translate(22.6375 130.759219)scale(0.1 -0.1)">
       <use xlink:href="#DejaVuSans-31"/>
      </g>
     </g>
    </g>
    <g id="ytick_5">
     <g id="line2d_21">
      <path clip-path="url(#p6449088fc1)" d="M 36 90 
L 259.2 90 
" style="fill:none;stroke:#b0b0b0;stroke-linecap:square;stroke-width:0.8;"/>
     </g>
     <g id="line2d_22">
      <g>
       <use style="stroke:#000000;stroke-width:0.8;" x="36" xlink:href="#m5164f4861b" y="90"/>
      </g>
     </g>
     <g id="text_12">
      <!-- 2 -->
      <g transform="translate(22.6375 93.799219)scale(0.1 -0.1)">
       <use xlink:href="#DejaVuSans-32"/>
      </g>
     </g>
    </g>
    <g id="ytick_6">
     <g id="line2d_23">
      <path clip-path="url(#p6449088fc1)" d="M 36 53.04 
L 259.2 53.04 
" style="fill:none;stroke:#b0b0b0;stroke-linecap:square;stroke-width:0.8;"/>
     </g>
     <g id="line2d_24">
      <g>
       <use style="stroke:#000000;stroke-width:0.8;" x="36" xlink:href="#m5164f4861b" y="53.04"/>
      </g>
     </g>
     <g id="text_13">
      <!-- 3 -->
      <g transform="translate(22.6375 56.839219)scale(0.1 -0.1)">
       <use xlink:href="#DejaVuSans-33"/>
      </g>
     </g>
    </g>
    <g id="text_14">
     <!-- $x_2$ -->
     <g transform="translate(8.178125 150.79)rotate(-90)scale(0.1 -0.1)">
      <use transform="translate(0 0.3125)" xlink:href="#DejaVuSans-Oblique-78"/>
      <use transform="translate(59.179688 -16.09375)scale(0.7)" xlink:href="#DejaVuSans-32"/>
     </g>
    </g>
   </g>
   <g id="patch_10">
    <path clip-path="url(#p6449088fc1)" d="M 54.6 237.84 
L 240.6 237.84 
L 240.6 53.04 
L 54.6 53.04 
z
" style="fill:none;stroke:#ff0000;stroke-linejoin:miter;stroke-width:2;"/>
   </g>
   <g id="patch_11">
    <path clip-path="url(#p6449088fc1)" d="M 91.8 200.88 
L 129 163.92 
L 91.8 126.96 
L 54.6 163.92 
z
" style="fill:none;stroke:#000000;stroke-linejoin:miter;"/>
   </g>
   <g id="patch_12">
    <path clip-path="url(#p6449088fc1)" d="M 166.2 182.4 
L 166.2 126.96 
L 110.4 126.96 
z
" style="fill:none;stroke:#000000;stroke-linejoin:miter;stroke-width:2;"/>
   </g>
   <g id="patch_13">
    <path clip-path="url(#p6449088fc1)" d="M 203.4 230.448 
L 203.4 175.008 
L 147.6 175.008 
z
" style="fill:none;opacity:0.2;stroke:#0000ff;stroke-linejoin:miter;stroke-width:8;"/>
   </g>
   <g id="patch_14">
    <path clip-path="url(#p6449088fc1)" d="M 76.92 230.448 
L 84.36 223.056 
L 76.92 215.664 
L 69.48 223.056 
z
" style="fill:none;stroke:#000000;stroke-linejoin:miter;"/>
   </g>
   <g id="patch_15">
    <path clip-path="url(#p6449088fc1)" d="M 56.843435 176.561064 
L 104.523149 198.651039 
L 126.756565 151.278936 
L 79.076851 129.188961 
z
" style="fill:none;opacity:0.3;stroke:#000000;stroke-linejoin:miter;"/>
   </g>
   <g id="patch_16">
    <path clip-path="url(#p6449088fc1)" d="M 106.68 112.176 
L 114.12 104.784 
L 106.68 97.392 
L 99.24 104.784 
z
" style="fill:none;opacity:0.3;stroke:#000000;stroke-linejoin:miter;"/>
   </g>
   <g id="patch_17">
    <path clip-path="url(#p6449088fc1)" d="M 129.004255 78.825788 
L 132.163645 88.556535 
L 147.286522 88.02772 
L 162.799753 79.148021 
L 164.633491 70.294211 
L 165.785633 62.347797 
L 161.601676 56.935338 
L 158.787698 54.213052 
L 135.317692 57.543853 
L 129.680324 62.274666 
z
" style="fill:none;stroke:#000000;stroke-linejoin:miter;"/>
   </g>
   <g id="line2d_25">
    <defs>
     <path d="M 0 3 
C 0.795609 3 1.55874 2.683901 2.12132 2.12132 
C 2.683901 1.55874 3 0.795609 3 0 
C 3 -0.795609 2.683901 -1.55874 2.12132 -2.12132 
C 1.55874 -2.683901 0.795609 -3 0 -3 
C -0.795609 -3 -1.55874 -2.683901 -2.12132 -2.12132 
C -2.683901 -1.55874 -3 -0.795609 -3 0 
C -3 0.795609 -2.683901 1.55874 -2.12132 2.12132 
C -1.55874 2.683901 -0.795609 3 0 3 
z
" id="m0fc0b9c8b2" style="stroke:#1f77b4;"/>
    </defs>
    <g clip-path="url(#p6449088fc1)">
     <use style="fill:#1f77b4;stroke:#1f77b4;" x="184.8" xlink:href="#m0fc0b9c8b2" y="193.488"/>
    </g>
   </g>
   <g id="line2d_26">
    <defs>
     <path d="M 0 1 
C 0.265203 1 0.51958 0.894634 0.707107 0.707107 
C 0.894634 0.51958 1 0.265203 1 0 
C 1 -0.265203 0.894634 -0.51958 0.707107 -0.707107 
C 0.51958 -0.894634 0.265203 -1 0 -1 
C -0.265203 -1 -0.51958 -0.894634 -0.707107 -0.707107 
C -0.894634 -0.51958 -1 -0.265203 -1 0 
C -1 0.265203 -0.894634 0.51958 -0.707107 0.707107 
C -0.51958 0.894634 -0.265203 1 0 1 
z
" id="mf5d8f38525" style="stroke:#ff0000;"/>
    </defs>
    <g clip-path="url(#p6449088fc1)">
     <use style="fill:#ff0000;stroke:#ff0000;" x="144.513219" xlink:href="#mf5d8f38525" y="63.376807"/>
     <use style="fill:#ff0000;stroke:#ff0000;" x="129.004255" xlink:href="#mf5d8f38525" y="78.825788"/>
     <use style="fill:#ff0000;stroke:#ff0000;" x="134.459319" xlink:href="#mf5d8f38525" y="86.587166"/>
     <use style="fill:#ff0000;stroke:#ff0000;" x="135.92888" xlink:href="#mf5d8f38525" y="77.228076"/>
     <use style="fill:#ff0000;stroke:#ff0000;" x="143.75975" xlink:href="#mf5d8f38525" y="70.085334"/>
     <use style="fill:#ff0000;stroke:#ff0000;" x="144.594036" xlink:href="#mf5d8f38525" y="64.674287"/>
     <use style="fill:#ff0000;stroke:#ff0000;" x="136.605624" xlink:href="#mf5d8f38525" y="57.54478"/>
     <use style="fill:#ff0000;stroke:#ff0000;" x="130.018818" xlink:href="#mf5d8f38525" y="65.219521"/>
     <use style="fill:#ff0000;stroke:#ff0000;" x="144.523739" xlink:href="#mf5d8f38525" y="69.350824"/>
     <use style="fill:#ff0000;stroke:#ff0000;" x="134.222394" xlink:href="#mf5d8f38525" y="82.678169"/>
     <use style="fill:#ff0000;stroke:#ff0000;" x="158.787698" xlink:href="#mf5d8f38525" y="54.213052"/>
     <use style="fill:#ff0000;stroke:#ff0000;" x="140.659379" xlink:href="#mf5d8f38525" y="64.411756"/>
     <use style="fill:#ff0000;stroke:#ff0000;" x="161.601676" xlink:href="#mf5d8f38525" y="56.935338"/>
     <use style="fill:#ff0000;stroke:#ff0000;" x="132.163645" xlink:href="#mf5d8f38525" y="88.556535"/>
     <use style="fill:#ff0000;stroke:#ff0000;" x="135.317692" xlink:href="#mf5d8f38525" y="57.543853"/>
     <use style="fill:#ff0000;stroke:#ff0000;" x="132.658502" xlink:href="#mf5d8f38525" y="74.435862"/>
     <use style="fill:#ff0000;stroke:#ff0000;" x="164.633491" xlink:href="#mf5d8f38525" y="70.294211"/>
     <use style="fill:#ff0000;stroke:#ff0000;" x="154.737829" xlink:href="#mf5d8f38525" y="78.338542"/>
     <use style="fill:#ff0000;stroke:#ff0000;" x="154.537835" xlink:href="#mf5d8f38525" y="59.152235"/>
     <use style="fill:#ff0000;stroke:#ff0000;" x="129.680324" xlink:href="#mf5d8f38525" y="62.274666"/>
     <use style="fill:#ff0000;stroke:#ff0000;" x="165.785633" xlink:href="#mf5d8f38525" y="62.347797"/>
     <use style="fill:#ff0000;stroke:#ff0000;" x="139.432517" xlink:href="#mf5d8f38525" y="60.828236"/>
     <use style="fill:#ff0000;stroke:#ff0000;" x="132.840007" xlink:href="#mf5d8f38525" y="73.445855"/>
     <use style="fill:#ff0000;stroke:#ff0000;" x="162.799753" xlink:href="#mf5d8f38525" y="79.148021"/>
     <use style="fill:#ff0000;stroke:#ff0000;" x="139.705243" xlink:href="#mf5d8f38525" y="85.194144"/>
     <use style="fill:#ff0000;stroke:#ff0000;" x="129.720451" xlink:href="#mf5d8f38525" y="64.910239"/>
     <use style="fill:#ff0000;stroke:#ff0000;" x="136.872566" xlink:href="#mf5d8f38525" y="80.185395"/>
     <use style="fill:#ff0000;stroke:#ff0000;" x="147.286522" xlink:href="#mf5d8f38525" y="88.02772"/>
     <use style="fill:#ff0000;stroke:#ff0000;" x="150.357175" xlink:href="#mf5d8f38525" y="84.576912"/>
     <use style="fill:#ff0000;stroke:#ff0000;" x="150.922166" xlink:href="#mf5d8f38525" y="64.136931"/>
    </g>
   </g>
   <g id="line2d_27">
    <defs>
     <path d="M 0 0.5 
C 0.132602 0.5 0.25979 0.447317 0.353553 0.353553 
C 0.447317 0.25979 0.5 0.132602 0.5 0 
C 0.5 -0.132602 0.447317 -0.25979 0.353553 -0.353553 
C 0.25979 -0.447317 0.132602 -0.5 0 -0.5 
C -0.132602 -0.5 -0.25979 -0.447317 -0.353553 -0.353553 
C -0.447317 -0.25979 -0.5 -0.132602 -0.5 0 
C -0.5 0.132602 -0.447317 0.25979 -0.353553 0.353553 
C -0.25979 0.447317 -0.132602 0.5 0 0.5 
z
" id="m8516b95b3f" style="stroke:#008000;"/>
    </defs>
    <g clip-path="url(#p6449088fc1)">
     <use style="fill:#008000;stroke:#008000;" x="158.787698" xlink:href="#m8516b95b3f" y="54.213052"/>
     <use style="fill:#008000;stroke:#008000;" x="135.317692" xlink:href="#m8516b95b3f" y="57.543853"/>
     <use style="fill:#008000;stroke:#008000;" x="129.680324" xlink:href="#m8516b95b3f" y="62.274666"/>
     <use style="fill:#008000;stroke:#008000;" x="129.004255" xlink:href="#m8516b95b3f" y="78.825788"/>
     <use style="fill:#008000;stroke:#008000;" x="132.163645" xlink:href="#m8516b95b3f" y="88.556535"/>
     <use style="fill:#008000;stroke:#008000;" x="147.286522" xlink:href="#m8516b95b3f" y="88.02772"/>
     <use style="fill:#008000;stroke:#008000;" x="162.799753" xlink:href="#m8516b95b3f" y="79.148021"/>
     <use style="fill:#008000;stroke:#008000;" x="164.633491" xlink:href="#m8516b95b3f" y="70.294211"/>
     <use style="fill:#008000;stroke:#008000;" x="165.785633" xlink:href="#m8516b95b3f" y="62.347797"/>
     <use style="fill:#008000;stroke:#008000;" x="161.601676" xlink:href="#m8516b95b3f" y="56.935338"/>
    </g>
   </g>
   <g id="patch_18">
    <path d="M 36 256.32 
L 36 34.56 
" style="fill:none;stroke:#000000;stroke-linecap:square;stroke-linejoin:miter;stroke-width:0.8;"/>
   </g>
   <g id="patch_19">
    <path d="M 259.2 256.32 
L 259.2 34.56 
" style="fill:none;stroke:#000000;stroke-linecap:square;stroke-linejoin:miter;stroke-width:0.8;"/>
   </g>
   <g id="patch_20">
    <path d="M 36 256.32 
L 259.2 256.32 
" style="fill:none;stroke:#000000;stroke-linecap:square;stroke-linejoin:miter;stroke-width:0.8;"/>
   </g>
   <g id="patch_21">
    <path d="M 36 34.56 
L 259.2 34.56 
" style="fill:none;stroke:#000000;stroke-linecap:square;stroke-linejoin:miter;stroke-width:0.8;"/>
   </g>
   <g id="text_15">
    <!-- Demonstration of various polytope operations -->
    <defs>
     <path d="M 19.671875 64.796875 
L 19.671875 8.109375 
L 31.59375 8.109375 
Q 46.6875 8.109375 53.6875 14.9375 
Q 60.6875 21.78125 60.6875 36.53125 
Q 60.6875 51.171875 53.6875 57.984375 
Q 46.6875 64.796875 31.59375 64.796875 
z
M 9.8125 72.90625 
L 30.078125 72.90625 
Q 51.265625 72.90625 61.171875 64.09375 
Q 71.09375 55.28125 71.09375 36.53125 
Q 71.09375 17.671875 61.125 8.828125 
Q 51.171875 0 30.078125 0 
L 9.8125 0 
z
" id="DejaVuSans-44"/>
     <path d="M 56.203125 29.59375 
L 56.203125 25.203125 
L 14.890625 25.203125 
Q 15.484375 15.921875 20.484375 11.0625 
Q 25.484375 6.203125 34.421875 6.203125 
Q 39.59375 6.203125 44.453125 7.46875 
Q 49.3125 8.734375 54.109375 11.28125 
L 54.109375 2.78125 
Q 49.265625 0.734375 44.1875 -0.34375 
Q 39.109375 -1.421875 33.890625 -1.421875 
Q 20.796875 -1.421875 13.15625 6.1875 
Q 5.515625 13.8125 5.515625 26.8125 
Q 5.515625 40.234375 12.765625 48.109375 
Q 20.015625 56 32.328125 56 
Q 43.359375 56 49.78125 48.890625 
Q 56.203125 41.796875 56.203125 29.59375 
z
M 47.21875 32.234375 
Q 47.125 39.59375 43.09375 43.984375 
Q 39.0625 48.390625 32.421875 48.390625 
Q 24.90625 48.390625 20.390625 44.140625 
Q 15.875 39.890625 15.1875 32.171875 
z
" id="DejaVuSans-65"/>
     <path d="M 52 44.1875 
Q 55.375 50.25 60.0625 53.125 
Q 64.75 56 71.09375 56 
Q 79.640625 56 84.28125 50.015625 
Q 88.921875 44.046875 88.921875 33.015625 
L 88.921875 0 
L 79.890625 0 
L 79.890625 32.71875 
Q 79.890625 40.578125 77.09375 44.375 
Q 74.3125 48.1875 68.609375 48.1875 
Q 61.625 48.1875 57.5625 43.546875 
Q 53.515625 38.921875 53.515625 30.90625 
L 53.515625 0 
L 44.484375 0 
L 44.484375 32.71875 
Q 44.484375 40.625 41.703125 44.40625 
Q 38.921875 48.1875 33.109375 48.1875 
Q 26.21875 48.1875 22.15625 43.53125 
Q 18.109375 38.875 18.109375 30.90625 
L 18.109375 0 
L 9.078125 0 
L 9.078125 54.6875 
L 18.109375 54.6875 
L 18.109375 46.1875 
Q 21.1875 51.21875 25.484375 53.609375 
Q 29.78125 56 35.6875 56 
Q 41.65625 56 45.828125 52.96875 
Q 50 49.953125 52 44.1875 
z
" id="DejaVuSans-6d"/>
     <path d="M 30.609375 48.390625 
Q 23.390625 48.390625 19.1875 42.75 
Q 14.984375 37.109375 14.984375 27.296875 
Q 14.984375 17.484375 19.15625 11.84375 
Q 23.34375 6.203125 30.609375 6.203125 
Q 37.796875 6.203125 41.984375 11.859375 
Q 46.1875 17.53125 46.1875 27.296875 
Q 46.1875 37.015625 41.984375 42.703125 
Q 37.796875 48.390625 30.609375 48.390625 
z
M 30.609375 56 
Q 42.328125 56 49.015625 48.375 
Q 55.71875 40.765625 55.71875 27.296875 
Q 55.71875 13.875 49.015625 6.21875 
Q 42.328125 -1.421875 30.609375 -1.421875 
Q 18.84375 -1.421875 12.171875 6.21875 
Q 5.515625 13.875 5.515625 27.296875 
Q 5.515625 40.765625 12.171875 48.375 
Q 18.84375 56 30.609375 56 
z
" id="DejaVuSans-6f"/>
     <path d="M 54.890625 33.015625 
L 54.890625 0 
L 45.90625 0 
L 45.90625 32.71875 
Q 45.90625 40.484375 42.875 44.328125 
Q 39.84375 48.1875 33.796875 48.1875 
Q 26.515625 48.1875 22.3125 43.546875 
Q 18.109375 38.921875 18.109375 30.90625 
L 18.109375 0 
L 9.078125 0 
L 9.078125 54.6875 
L 18.109375 54.6875 
L 18.109375 46.1875 
Q 21.34375 51.125 25.703125 53.5625 
Q 30.078125 56 35.796875 56 
Q 45.21875 56 50.046875 50.171875 
Q 54.890625 44.34375 54.890625 33.015625 
z
" id="DejaVuSans-6e"/>
     <path d="M 44.28125 53.078125 
L 44.28125 44.578125 
Q 40.484375 46.53125 36.375 47.5 
Q 32.28125 48.484375 27.875 48.484375 
Q 21.1875 48.484375 17.84375 46.4375 
Q 14.5 44.390625 14.5 40.28125 
Q 14.5 37.15625 16.890625 35.375 
Q 19.28125 33.59375 26.515625 31.984375 
L 29.59375 31.296875 
Q 39.15625 29.25 43.1875 25.515625 
Q 47.21875 21.78125 47.21875 15.09375 
Q 47.21875 7.46875 41.1875 3.015625 
Q 35.15625 -1.421875 24.609375 -1.421875 
Q 20.21875 -1.421875 15.453125 -0.5625 
Q 10.6875 0.296875 5.421875 2 
L 5.421875 11.28125 
Q 10.40625 8.6875 15.234375 7.390625 
Q 20.0625 6.109375 24.8125 6.109375 
Q 31.15625 6.109375 34.5625 8.28125 
Q 37.984375 10.453125 37.984375 14.40625 
Q 37.984375 18.0625 35.515625 20.015625 
Q 33.0625 21.96875 24.703125 23.78125 
L 21.578125 24.515625 
Q 13.234375 26.265625 9.515625 29.90625 
Q 5.8125 33.546875 5.8125 39.890625 
Q 5.8125 47.609375 11.28125 51.796875 
Q 16.75 56 26.8125 56 
Q 31.78125 56 36.171875 55.265625 
Q 40.578125 54.546875 44.28125 53.078125 
z
" id="DejaVuSans-73"/>
     <path d="M 18.3125 70.21875 
L 18.3125 54.6875 
L 36.8125 54.6875 
L 36.8125 47.703125 
L 18.3125 47.703125 
L 18.3125 18.015625 
Q 18.3125 11.328125 20.140625 9.421875 
Q 21.96875 7.515625 27.59375 7.515625 
L 36.8125 7.515625 
L 36.8125 0 
L 27.59375 0 
Q 17.1875 0 13.234375 3.875 
Q 9.28125 7.765625 9.28125 18.015625 
L 9.28125 47.703125 
L 2.6875 47.703125 
L 2.6875 54.6875 
L 9.28125 54.6875 
L 9.28125 70.21875 
z
" id="DejaVuSans-74"/>
     <path d="M 41.109375 46.296875 
Q 39.59375 47.171875 37.8125 47.578125 
Q 36.03125 48 33.890625 48 
Q 26.265625 48 22.1875 43.046875 
Q 18.109375 38.09375 18.109375 28.8125 
L 18.109375 0 
L 9.078125 0 
L 9.078125 54.6875 
L 18.109375 54.6875 
L 18.109375 46.1875 
Q 20.953125 51.171875 25.484375 53.578125 
Q 30.03125 56 36.53125 56 
Q 37.453125 56 38.578125 55.875 
Q 39.703125 55.765625 41.0625 55.515625 
z
" id="DejaVuSans-72"/>
     <path d="M 34.28125 27.484375 
Q 23.390625 27.484375 19.1875 25 
Q 14.984375 22.515625 14.984375 16.5 
Q 14.984375 11.71875 18.140625 8.90625 
Q 21.296875 6.109375 26.703125 6.109375 
Q 34.1875 6.109375 38.703125 11.40625 
Q 43.21875 16.703125 43.21875 25.484375 
L 43.21875 27.484375 
z
M 52.203125 31.203125 
L 52.203125 0 
L 43.21875 0 
L 43.21875 8.296875 
Q 40.140625 3.328125 35.546875 0.953125 
Q 30.953125 -1.421875 24.3125 -1.421875 
Q 15.921875 -1.421875 10.953125 3.296875 
Q 6 8.015625 6 15.921875 
Q 6 25.140625 12.171875 29.828125 
Q 18.359375 34.515625 30.609375 34.515625 
L 43.21875 34.515625 
L 43.21875 35.40625 
Q 43.21875 41.609375 39.140625 45 
Q 35.0625 48.390625 27.6875 48.390625 
Q 23 48.390625 18.546875 47.265625 
Q 14.109375 46.140625 10.015625 43.890625 
L 10.015625 52.203125 
Q 14.9375 54.109375 19.578125 55.046875 
Q 24.21875 56 28.609375 56 
Q 40.484375 56 46.34375 49.84375 
Q 52.203125 43.703125 52.203125 31.203125 
z
" id="DejaVuSans-61"/>
     <path d="M 9.421875 54.6875 
L 18.40625 54.6875 
L 18.40625 0 
L 9.421875 0 
z
M 9.421875 75.984375 
L 18.40625 75.984375 
L 18.40625 64.59375 
L 9.421875 64.59375 
z
" id="DejaVuSans-69"/>
     <path id="DejaVuSans-20"/>
     <path d="M 37.109375 75.984375 
L 37.109375 68.5 
L 28.515625 68.5 
Q 23.6875 68.5 21.796875 66.546875 
Q 19.921875 64.59375 19.921875 59.515625 
L 19.921875 54.6875 
L 34.71875 54.6875 
L 34.71875 47.703125 
L 19.921875 47.703125 
L 19.921875 0 
L 10.890625 0 
L 10.890625 47.703125 
L 2.296875 47.703125 
L 2.296875 54.6875 
L 10.890625 54.6875 
L 10.890625 58.5 
Q 10.890625 67.625 15.140625 71.796875 
Q 19.390625 75.984375 28.609375 75.984375 
z
" id="DejaVuSans-66"/>
     <path d="M 2.984375 54.6875 
L 12.5 54.6875 
L 29.59375 8.796875 
L 46.6875 54.6875 
L 56.203125 54.6875 
L 35.6875 0 
L 23.484375 0 
z
" id="DejaVuSans-76"/>
     <path d="M 8.5 21.578125 
L 8.5 54.6875 
L 17.484375 54.6875 
L 17.484375 21.921875 
Q 17.484375 14.15625 20.5 10.265625 
Q 23.53125 6.390625 29.59375 6.390625 
Q 36.859375 6.390625 41.078125 11.03125 
Q 45.3125 15.671875 45.3125 23.6875 
L 45.3125 54.6875 
L 54.296875 54.6875 
L 54.296875 0 
L 45.3125 0 
L 45.3125 8.40625 
Q 42.046875 3.421875 37.71875 1 
Q 33.40625 -1.421875 27.6875 -1.421875 
Q 18.265625 -1.421875 13.375 4.4375 
Q 8.5 10.296875 8.5 21.578125 
z
M 31.109375 56 
z
" id="DejaVuSans-75"/>
     <path d="M 18.109375 8.203125 
L 18.109375 -20.796875 
L 9.078125 -20.796875 
L 9.078125 54.6875 
L 18.109375 54.6875 
L 18.109375 46.390625 
Q 20.953125 51.265625 25.265625 53.625 
Q 29.59375 56 35.59375 56 
Q 45.5625 56 51.78125 48.09375 
Q 58.015625 40.1875 58.015625 27.296875 
Q 58.015625 14.40625 51.78125 6.484375 
Q 45.5625 -1.421875 35.59375 -1.421875 
Q 29.59375 -1.421875 25.265625 0.953125 
Q 20.953125 3.328125 18.109375 8.203125 
z
M 48.6875 27.296875 
Q 48.6875 37.203125 44.609375 42.84375 
Q 40.53125 48.484375 33.40625 48.484375 
Q 26.265625 48.484375 22.1875 42.84375 
Q 18.109375 37.203125 18.109375 27.296875 
Q 18.109375 17.390625 22.1875 11.75 
Q 26.265625 6.109375 33.40625 6.109375 
Q 40.53125 6.109375 44.609375 11.75 
Q 48.6875 17.390625 48.6875 27.296875 
z
" id="DejaVuSans-70"/>
     <path d="M 9.421875 75.984375 
L 18.40625 75.984375 
L 18.40625 0 
L 9.421875 0 
z
" id="DejaVuSans-6c"/>
     <path d="M 32.171875 -5.078125 
Q 28.375 -14.84375 24.75 -17.8125 
Q 21.140625 -20.796875 15.09375 -20.796875 
L 7.90625 -20.796875 
L 7.90625 -13.28125 
L 13.1875 -13.28125 
Q 16.890625 -13.28125 18.9375 -11.515625 
Q 21 -9.765625 23.484375 -3.21875 
L 25.09375 0.875 
L 2.984375 54.6875 
L 12.5 54.6875 
L 29.59375 11.921875 
L 46.6875 54.6875 
L 56.203125 54.6875 
z
" id="DejaVuSans-79"/>
    </defs>
    <g transform="translate(9.327188 28.56)scale(0.12 -0.12)">
     <use xlink:href="#DejaVuSans-44"/>
     <use x="77.001953" xlink:href="#DejaVuSans-65"/>
     <use x="138.525391" xlink:href="#DejaVuSans-6d"/>
     <use x="235.9375" xlink:href="#DejaVuSans-6f"/>
     <use x="297.119141" xlink:href="#DejaVuSans-6e"/>
     <use x="360.498047" xlink:href="#DejaVuSans-73"/>
     <use x="412.597656" xlink:href="#DejaVuSans-74"/>
     <use x="451.806641" xlink:href="#DejaVuSans-72"/>
     <use x="492.919922" xlink:href="#DejaVuSans-61"/>
     <use x="554.199219" xlink:href="#DejaVuSans-74"/>
     <use x="593.408203" xlink:href="#DejaVuSans-69"/>
     <use x="621.191406" xlink:href="#DejaVuSans-6f"/>
     <use x="682.373047" xlink:href="#DejaVuSans-6e"/>
     <use x="745.751953" xlink:href="#DejaVuSans-20"/>
     <use x="777.539062" xlink:href="#DejaVuSans-6f"/>
     <use x="838.720703" xlink:href="#DejaVuSans-66"/>
     <use x="873.925781" xlink:href="#DejaVuSans-20"/>
     <use x="905.712891" xlink:href="#DejaVuSans-76"/>
     <use x="964.892578" xlink:href="#DejaVuSans-61"/>
     <use x="1026.171875" xlink:href="#DejaVuSans-72"/>
     <use x="1067.285156" xlink:href="#DejaVuSans-69"/>
     <use x="1095.068359" xlink:href="#DejaVuSans-6f"/>
     <use x="1156.25" xlink:href="#DejaVuSans-75"/>
     <use x="1219.628906" xlink:href="#DejaVuSans-73"/>
     <use x="1271.728516" xlink:href="#DejaVuSans-20"/>
     <use x="1303.515625" xlink:href="#DejaVuSans-70"/>
     <use x="1366.992188" xlink:href="#DejaVuSans-6f"/>
     <use x="1428.173828" xlink:href="#DejaVuSans-6c"/>
     <use x="1455.957031" xlink:href="#DejaVuSans-79"/>
     <use x="1515.136719" xlink:href="#DejaVuSans-74"/>
     <use x="1554.345703" xlink:href="#DejaVuSans-6f"/>
     <use x="1615.527344" xlink:href="#DejaVuSans-70"/>
     <use x="1679.003906" xlink:href="#DejaVuSans-65"/>
     <use x="1740.527344" xlink:href="#DejaVuSans-20"/>
     <use x="1772.314453" xlink:href="#DejaVuSans-6f"/>
     <use x="1833.496094" xlink:href="#DejaVuSans-70"/>
     <use x="1896.972656" xlink:href="#DejaVuSans-65"/>
     <use x="1958.496094" xlink:href="#DejaVuSans-72"/>
     <use x="1999.609375" xlink:href="#DejaVuSans-61"/>
     <use x="2060.888672" xlink:href="#DejaVuSans-74"/>
     <use x="2100.097656" xlink:href="#DejaVuSans-69"/>
     <use x="2127.880859" xlink:href="#DejaVuSans-6f"/>
     <use x="2189.0625" xlink:href="#DejaVuSans-6e"/>
     <use x="2252.441406" xlink:href="#DejaVuSans-73"/>
    </g>
   </g>
  </g>
 </g>
 <defs>
  <clipPath id="p6449088fc1">
   <rect height="221.76" width="223.2" x="36" y="34.56"/>
  </clipPath>
 </defs>
</svg>
